<mxfile host="app.diagrams.net" modified="2021-06-08T07:56:51.489Z" agent="5.0 (Windows NT 10.0; Win64; x64) AppleWebKit/537.36 (KHTML, like Gecko) Chrome/90.0.4430.212 Safari/537.36" etag="zF2BQ1JvPVFwphi7R8Cs" version="14.6.13" type="github">
  <diagram id="EunHHvDyKu9KEBRCu0cb" name="Page-1">
    <mxGraphModel dx="981" dy="575" grid="1" gridSize="10" guides="1" tooltips="1" connect="1" arrows="1" fold="1" page="1" pageScale="1" pageWidth="850" pageHeight="1100" math="0" shadow="0">
      <root>
        <mxCell id="0" />
        <mxCell id="1" parent="0" />
        <mxCell id="VP1_t2__LC_QrhO8QvFU-1" value="&amp;nbsp; &amp;nbsp; &amp;nbsp; &amp;nbsp; &amp;nbsp; &amp;nbsp; &amp;nbsp; &amp;nbsp; &amp;nbsp; &amp;nbsp; &amp;nbsp; &amp;nbsp; &amp;nbsp; &amp;nbsp; &amp;nbsp; &amp;nbsp;&lt;br&gt;&amp;nbsp; &amp;nbsp; &amp;nbsp; &amp;nbsp; &amp;nbsp;&lt;br&gt;&amp;nbsp; &amp;nbsp; &amp;nbsp; &amp;nbsp; &amp;nbsp; &amp;nbsp; &amp;nbsp; &amp;nbsp; &amp;nbsp; &amp;nbsp; &amp;nbsp; &amp;nbsp; &amp;nbsp; &amp;nbsp; &amp;nbsp; &amp;nbsp; V1.19.7 (All in One Node)" style="rounded=1;whiteSpace=wrap;html=1;shadow=1;align=left;fillColor=#eeeeee;strokeColor=#36393d;verticalAlign=middle;" vertex="1" parent="1">
          <mxGeometry x="149.99" y="360" width="800" height="70" as="geometry" />
        </mxCell>
        <mxCell id="VP1_t2__LC_QrhO8QvFU-2" value="&lt;span style=&quot;font-size: 18px&quot;&gt;&lt;b&gt;&amp;nbsp; &amp;nbsp; Client Pod&lt;/b&gt;&lt;/span&gt;" style="rounded=1;whiteSpace=wrap;html=1;align=left;verticalAlign=top;fontSize=13;strokeWidth=3;shadow=1;fillColor=#f5f5f5;strokeColor=#666666;fontColor=#333333;" vertex="1" parent="1">
          <mxGeometry x="150" y="60" width="360" height="280" as="geometry" />
        </mxCell>
        <mxCell id="VP1_t2__LC_QrhO8QvFU-3" value="" style="edgeStyle=orthogonalEdgeStyle;rounded=0;orthogonalLoop=1;jettySize=auto;html=1;entryX=0.207;entryY=0.118;entryDx=0;entryDy=0;entryPerimeter=0;strokeWidth=3;endArrow=none;endFill=0;" edge="1" parent="1" source="VP1_t2__LC_QrhO8QvFU-4" target="VP1_t2__LC_QrhO8QvFU-7">
          <mxGeometry relative="1" as="geometry" />
        </mxCell>
        <mxCell id="VP1_t2__LC_QrhO8QvFU-4" value="&lt;b&gt;Nighhawk&lt;br&gt;client&lt;br&gt;(1 replica)&lt;/b&gt;" style="rounded=0;whiteSpace=wrap;html=1;fillColor=#e1d5e7;strokeColor=#9673a6;shadow=1;" vertex="1" parent="1">
          <mxGeometry x="175" y="120" width="80" height="50" as="geometry" />
        </mxCell>
        <mxCell id="VP1_t2__LC_QrhO8QvFU-5" value="Socket" style="rounded=0;whiteSpace=wrap;html=1;fillColor=#60a917;strokeColor=#2D7600;fontColor=#ffffff;shadow=1;" vertex="1" parent="1">
          <mxGeometry x="175" y="190" width="80" height="20" as="geometry" />
        </mxCell>
        <mxCell id="VP1_t2__LC_QrhO8QvFU-6" style="edgeStyle=orthogonalEdgeStyle;rounded=0;orthogonalLoop=1;jettySize=auto;html=1;strokeColor=#000000;entryX=-0.011;entryY=0.44;entryDx=0;entryDy=0;entryPerimeter=0;strokeWidth=3;" edge="1" parent="1" source="VP1_t2__LC_QrhO8QvFU-7" target="VP1_t2__LC_QrhO8QvFU-10">
          <mxGeometry relative="1" as="geometry">
            <Array as="points">
              <mxPoint x="320" y="142" />
            </Array>
          </mxGeometry>
        </mxCell>
        <mxCell id="VP1_t2__LC_QrhO8QvFU-7" value="&lt;font style=&quot;font-size: 14px&quot;&gt;&lt;b&gt;ebpf&lt;/b&gt;&lt;/font&gt;" style="rounded=0;whiteSpace=wrap;html=1;fillColor=#ffcd28;strokeColor=#d79b00;gradientColor=#ffa500;shadow=1;" vertex="1" parent="1">
          <mxGeometry x="175" y="220" width="185" height="20" as="geometry" />
        </mxCell>
        <mxCell id="VP1_t2__LC_QrhO8QvFU-8" value="Socket" style="rounded=0;whiteSpace=wrap;html=1;fillColor=#60a917;strokeColor=#2D7600;fontColor=#ffffff;shadow=1;" vertex="1" parent="1">
          <mxGeometry x="280" y="190" width="80" height="20" as="geometry" />
        </mxCell>
        <mxCell id="VP1_t2__LC_QrhO8QvFU-9" style="edgeStyle=orthogonalEdgeStyle;rounded=0;orthogonalLoop=1;jettySize=auto;html=1;strokeWidth=3;endArrow=none;endFill=0;" edge="1" parent="1">
          <mxGeometry relative="1" as="geometry">
            <mxPoint x="310" y="340" as="sourcePoint" />
            <mxPoint x="488" y="391" as="targetPoint" />
            <Array as="points">
              <mxPoint x="310" y="395" />
            </Array>
          </mxGeometry>
        </mxCell>
        <mxCell id="VP1_t2__LC_QrhO8QvFU-41" style="edgeStyle=orthogonalEdgeStyle;rounded=0;orthogonalLoop=1;jettySize=auto;html=1;entryX=0.134;entryY=0.179;entryDx=0;entryDy=0;entryPerimeter=0;endArrow=none;endFill=0;strokeWidth=3;" edge="1" parent="1" source="VP1_t2__LC_QrhO8QvFU-10" target="VP1_t2__LC_QrhO8QvFU-21">
          <mxGeometry relative="1" as="geometry" />
        </mxCell>
        <mxCell id="VP1_t2__LC_QrhO8QvFU-10" value="envoy" style="rounded=0;whiteSpace=wrap;html=1;shadow=1;" vertex="1" parent="1">
          <mxGeometry x="400" y="120" width="80" height="50" as="geometry" />
        </mxCell>
        <mxCell id="VP1_t2__LC_QrhO8QvFU-11" value="Socket" style="rounded=0;whiteSpace=wrap;html=1;fillColor=#60a917;strokeColor=#2D7600;fontColor=#ffffff;shadow=1;" vertex="1" parent="1">
          <mxGeometry x="400" y="190" width="80" height="20" as="geometry" />
        </mxCell>
        <mxCell id="VP1_t2__LC_QrhO8QvFU-12" value="&lt;b style=&quot;font-size: 19px&quot;&gt;&lt;span&gt;&amp;nbsp; &amp;nbsp; &amp;nbsp; Server &lt;/span&gt;&lt;font style=&quot;font-size: 19px&quot;&gt;Pod&lt;/font&gt;&lt;/b&gt;" style="rounded=1;whiteSpace=wrap;html=1;align=left;verticalAlign=top;strokeWidth=3;shadow=1;fillColor=#f5f5f5;strokeColor=#666666;fontColor=#333333;" vertex="1" parent="1">
          <mxGeometry x="590" y="60" width="360" height="280" as="geometry" />
        </mxCell>
        <mxCell id="VP1_t2__LC_QrhO8QvFU-13" value="&lt;b&gt;Nighthawk&lt;br&gt;Server&lt;br&gt;(1 replica)&lt;br&gt;&lt;/b&gt;" style="rounded=0;whiteSpace=wrap;html=1;fillColor=#e1d5e7;strokeColor=#9673a6;shadow=1;" vertex="1" parent="1">
          <mxGeometry x="845" y="120" width="80" height="50" as="geometry" />
        </mxCell>
        <mxCell id="VP1_t2__LC_QrhO8QvFU-14" style="edgeStyle=orthogonalEdgeStyle;rounded=0;orthogonalLoop=1;jettySize=auto;html=1;entryX=0.5;entryY=1;entryDx=0;entryDy=0;strokeWidth=3;" edge="1" parent="1" source="VP1_t2__LC_QrhO8QvFU-15" target="VP1_t2__LC_QrhO8QvFU-13">
          <mxGeometry relative="1" as="geometry">
            <Array as="points">
              <mxPoint x="885" y="210" />
              <mxPoint x="885" y="210" />
            </Array>
          </mxGeometry>
        </mxCell>
        <mxCell id="VP1_t2__LC_QrhO8QvFU-15" value="&lt;font style=&quot;font-size: 14px&quot;&gt;&lt;b&gt;ebpf&lt;/b&gt;&lt;/font&gt;" style="rounded=0;whiteSpace=wrap;html=1;fillColor=#ffcd28;strokeColor=#d79b00;gradientColor=#ffa500;shadow=1;" vertex="1" parent="1">
          <mxGeometry x="740" y="220" width="185" height="20" as="geometry" />
        </mxCell>
        <mxCell id="VP1_t2__LC_QrhO8QvFU-16" value="Socket" style="rounded=0;whiteSpace=wrap;html=1;fillColor=#60a917;strokeColor=#2D7600;fontColor=#ffffff;shadow=1;" vertex="1" parent="1">
          <mxGeometry x="845" y="190" width="80" height="20" as="geometry" />
        </mxCell>
        <mxCell id="VP1_t2__LC_QrhO8QvFU-17" style="edgeStyle=orthogonalEdgeStyle;rounded=0;orthogonalLoop=1;jettySize=auto;html=1;entryX=0.212;entryY=0.099;entryDx=0;entryDy=0;entryPerimeter=0;strokeColor=#000000;strokeWidth=3;endArrow=none;endFill=0;" edge="1" parent="1" source="VP1_t2__LC_QrhO8QvFU-18" target="VP1_t2__LC_QrhO8QvFU-15">
          <mxGeometry relative="1" as="geometry" />
        </mxCell>
        <mxCell id="VP1_t2__LC_QrhO8QvFU-18" value="envoy" style="rounded=0;whiteSpace=wrap;html=1;shadow=1;" vertex="1" parent="1">
          <mxGeometry x="740" y="120" width="80" height="50" as="geometry" />
        </mxCell>
        <mxCell id="VP1_t2__LC_QrhO8QvFU-19" value="Socket" style="rounded=0;whiteSpace=wrap;html=1;fillColor=#60a917;strokeColor=#2D7600;fontColor=#ffffff;shadow=1;" vertex="1" parent="1">
          <mxGeometry x="740" y="190" width="80" height="20" as="geometry" />
        </mxCell>
        <mxCell id="VP1_t2__LC_QrhO8QvFU-20" style="edgeStyle=orthogonalEdgeStyle;rounded=0;orthogonalLoop=1;jettySize=auto;html=1;entryX=0;entryY=0.5;entryDx=0;entryDy=0;endArrow=classic;endFill=1;strokeWidth=3;" edge="1" parent="1" source="VP1_t2__LC_QrhO8QvFU-21" target="VP1_t2__LC_QrhO8QvFU-18">
          <mxGeometry relative="1" as="geometry">
            <Array as="points">
              <mxPoint x="660" y="145" />
            </Array>
          </mxGeometry>
        </mxCell>
        <mxCell id="VP1_t2__LC_QrhO8QvFU-21" value="&lt;font style=&quot;font-size: 14px&quot;&gt;&lt;b&gt;ebpf&lt;/b&gt;&lt;/font&gt;" style="rounded=0;whiteSpace=wrap;html=1;fillColor=#ffcd28;strokeColor=#d79b00;gradientColor=#ffa500;shadow=1;" vertex="1" parent="1">
          <mxGeometry x="400" y="220" width="300" height="20" as="geometry" />
        </mxCell>
        <mxCell id="VP1_t2__LC_QrhO8QvFU-22" value="Socket" style="rounded=0;whiteSpace=wrap;html=1;fillColor=#60a917;strokeColor=#2D7600;fontColor=#ffffff;shadow=1;" vertex="1" parent="1">
          <mxGeometry x="620" y="190" width="80" height="20" as="geometry" />
        </mxCell>
        <mxCell id="VP1_t2__LC_QrhO8QvFU-23" value="&lt;br&gt;&lt;br&gt;&lt;br&gt;&amp;nbsp; &amp;nbsp; &amp;nbsp; &amp;nbsp; &amp;nbsp; &amp;nbsp; &amp;nbsp; &amp;nbsp; &amp;nbsp; &amp;nbsp; &amp;nbsp; &amp;nbsp; &amp;nbsp;Distribution: 20.10&amp;nbsp;&lt;br&gt;&amp;nbsp; &amp;nbsp; &amp;nbsp; &amp;nbsp; &amp;nbsp; &amp;nbsp; &amp;nbsp; &amp;nbsp; &amp;nbsp; &amp;nbsp; &amp;nbsp; &amp;nbsp; &amp;nbsp;Kernel: 5.8.0" style="rounded=1;whiteSpace=wrap;html=1;shadow=1;align=left;fillColor=#eeeeee;strokeColor=#36393d;verticalAlign=top;sketch=0;glass=0;" vertex="1" parent="1">
          <mxGeometry x="149.99" y="440" width="800" height="90" as="geometry" />
        </mxCell>
        <mxCell id="VP1_t2__LC_QrhO8QvFU-31" style="edgeStyle=orthogonalEdgeStyle;rounded=0;orthogonalLoop=1;jettySize=auto;html=1;exitX=0.986;exitY=0.403;exitDx=0;exitDy=0;endArrow=none;endFill=0;strokeWidth=3;startArrow=none;entryX=0.5;entryY=1;entryDx=0;entryDy=0;exitPerimeter=0;" edge="1" parent="1" source="VP1_t2__LC_QrhO8QvFU-40" target="VP1_t2__LC_QrhO8QvFU-12">
          <mxGeometry relative="1" as="geometry">
            <mxPoint x="620" y="395" as="sourcePoint" />
            <mxPoint x="661" y="340" as="targetPoint" />
            <Array as="points">
              <mxPoint x="770" y="394" />
            </Array>
          </mxGeometry>
        </mxCell>
        <mxCell id="VP1_t2__LC_QrhO8QvFU-32" value="" style="shape=image;verticalLabelPosition=bottom;labelBackgroundColor=#ffffff;verticalAlign=top;aspect=fixed;imageAspect=0;image=https://kubernetes.io/images/kubernetes-horizontal-color.png;" vertex="1" parent="1">
          <mxGeometry x="162.14" y="400" width="92.86" height="20" as="geometry" />
        </mxCell>
        <mxCell id="VP1_t2__LC_QrhO8QvFU-37" value="" style="shape=image;verticalLabelPosition=bottom;labelBackgroundColor=#ffffff;verticalAlign=top;aspect=fixed;imageAspect=0;image=data:image/png,iVBORw0KGgoAAAANSUhEUgAAAxUAAAFVCAYAAACZ2sJPAAAgAElEQVR4Aey9d5RT1Rr//fv7/a31vvcKdrH3rui13Gu791rovfcOUgTpoKCggAUp0hEFBAUREQSlCkoRkSaggMDMJDOZmUySmSQzqSfnfN+1dxjulMxMck4ynMA3a82alHNOTvb+PM/e312e5/+ce6Uu+McyIANkgAyQATJABsgAGSADZEAvA/9H74k8j9CRATJABsgAGSADZIAMkAEyIBigqOBMDWeqyAAZIANkgAyQATJABsiAIQYoKgiQIYA4OsHRCTJABsgAGSADZIAMkAGKCooKigoyQAbIABkgA2SADJABMmCIAYoKAmQIII5McGSCDJABMkAGyAAZIANkgKKCooKiggyQATJABsgAGSADZIAMGGKAooIAGQKIIxMcmSADZIAMkAEyQAbIABmgqKCooKggA2SADJABMkAGyAAZIAOGGKCoIECGAOLIBEcmyAAZIANkgAyQATJABigqKCooKsgAGSADZIAMkAEyQAbIgCEGKCoIkCGAODLBkQkyQAbIABkgA2SADJABigqKCooKMkAGyAAZIANkgAyQATJgiAGKCgJkCCCOTHBkggyQATJABsgAGSADZICigqKCooIMkAEyQAbIABkgA2SADBhigKKCABkCiCMTHJkgA2SADJABMkAGyAAZoKigqKCoIANkgAyQATJABsgAGSADhhigqCBAhgDiyARHJsgAGSADZIAMkAEyQAYoKigqKCrIABkgA2SADJABMkAGyIAhBigqCJAhgDgywZEJMkAGyAAZIANkgAyQAYoKigqKCjJABsgAGSADZIAMkAEyYIgBigoCZAggjkxwZIIMkAEyQAbIABkgA2SAooKigqKCDJABMkAGyAAZIANkgAwYYoCiggAZAogjExyZIANkgAyQATJABsgAGaCooKigqCADZIAMkAEyQAbIABkgA4YYoKggQIYA4sgERybIABkgA2SADJABMkAGKCooKigqyAAZIANkgAyQATJABsiAIQYoKgiQIYA4MsGRCTJABsgAGSADZIAMkAGKCooKigoyQAbIABkgA2SADJABMmCIAYoKAmQIII5McGSCDJABMkAGyAAZIANkgKKCooKiggyQATJABsgAGSADZIAMGGKAooIAGQKIIxMcmSADZIAMkAEyQAbIABmgqKCooKggA2SADJABMkAGyAAZIAOGGKCoIECGAOLIBEcmyAAZIANkgAyQATJABigqKCooKsgAGSADZIAMkAEyQAbIgCEGKCoIkCGAODLBkQkyQAbIABkgA2SADJABigqKCooKMkAGyAAZIANkgAyQATJgiAGKCgJkCCCOTHBkggyQATJABsgAGSADZICigqKCooIMkAEyQAbIABkgA2SADBhigKKCABkCiCMTHJkgA2SADJABMkAGyAAZoKigqKCoIANkgAyQATJABsgAGSADhhigqCBAhgDiyARHJsgAGSADZIAMkAEyQAYoKigqKCrIABkgA2SADJABMkAGyIAhBigqCJAhgDgywZEJMkAGyAAZIANkgAyQAYoKigqKCjJABsgAGSADZIAMkAEyYIgBigoCZAggjkxwZIIMkAEyQAbIABkgA2SAooKigqKCDJABMkAGyAAZIANkgAwYYoCiggAZAogjExyZIANkgAyQATJABsgAGaCooKigqCADZIAMkAEyQAbIABkgA4YYoKggQIYA4sgERybIABkgA2SADJABMkAGKCooKigqyAAZIANkgAyQATJABsiAIQYoKgiQIYA4MsGRCTJABsgAGSADZIAMkAGKCooKigoyQAbIABkgA2SADJABMmCIAYoKAmQIII5McGSCDJABMkAGyAAZIANkgKKCooKiggyQATJABsgAGSADZIAMGGKAooIAGQKIIxMcmSADZIAMkAEyQAbIABmgqKCooKggA2SADJABMkAGyAAZIAOGGKCoIECGAOLIBEcmyAAZIANkgAyQATJABigqKCooKsgAGSADZIAMkAEyQAbIgCEGKCoIkCGAODLBkQkyQAbIABkgA2SADJABigqKCooKMkAGyAAZIANkgAyQATJgiAGKCgJkCCCOTHBkggyQATJABsgAGSADZICigqKCooIMkAEyQAbIABkgA2SADBhigKKCABkCiCMTHJkgA2SADJABMkAGyAAZoKigqKCoIANkgAyQATJABsgAGSADhhigqCBAhgDiyARHJsgAGSADZIAMkAEyQAYoKigqKCrIABkgA2SADJABMkAGyIAhBigqCJAhgDgywZEJMkAGyAAZIANkgAyQAYoKigqKCjJABsgAGSADZIAMkAEyYIgBigoCZAggjkxwZIIMkAEyQAbIABkgA2SAooKigqKCDJABMkAGyAAZIANkgAwYYoCiggAZAogjExyZIANkgAyQATJABsgAGaCooKigqCADZIAMkAEyQAbIABkgA4YYoKggQIYA4sgERybIABkgA2SADJABMkAGKCooKigqyAAZIANkgAyQATJABsiAIQYoKgiQIYA4MsGRCTJABsgAGSADZIAMkAGKCooKigoyQAbIABkgA2SADJABMmCIAYoKAmQIII5McGSCDJABMkAGyAAZIANkgKKCooKiggyQATJABsgAGSADZIAMGGKAooIAGQKIIxMcmSADZIAMkAEyQAbIABmgqKCooKggA2SADJABMkAGyAAZIAOGGKCoIECGAOLIBEcmyAAZIANkgAyQATJABigqKCooKsgAGSADZIAMkAEyQAbIgCEGKCoIkCGAODLBkQkyQAbIABkgA2SADJABigqKCooKMkAGyAAZIANkgAyQATJgiAGKCgJkCCCOTHBkggyQATJABsgAGSADZICigqKCooIMkAEyQAbIABkgA2SADBhigKKCABkCiCMTHJkgA2SADJABMkAGyAAZoKigqKCoIANkgAyQATJABsgAGSADhhigqCBAhgDiyARHJsgAGSADZIAMkAEyQAYoKigqKCrIABkgA2SADJABMkAGyIAhBigqCJAhgDgywZEJMkAGyAAZIANkgAyQAYoKigqKCjJABsgAGSADZIAMkAEyYIgBigoCZAggjkxwZIIMkAEyQAbIABkgA2SAooKigqKCDJABMkAGyAAZIANkgAwYYoCiggAZAogjExyZIANkgAyQATJABsgAGaCooKigqCADZIAMkAEyQAbIABkgA4YYoKggQIYA4sgERybIABkgA2SADJABMkAGKCooKigqyAAZIANkgAyQATJABsiAIQYoKgiQIYA4MsGRCTJABsgAGSADZIAMkAGKCooKiopUMNCgLs6Jv1Rcm9dkuZIBMkAGyAAZ0McA22d95RYHbxQVcRQSO4bsHCfKQEbDushsVIfCgvaVMuedKJM8nn6MDJCBy56BBtG2WbTRl31ZpKB9pqhIQaES1MvHWLOa1EF2iysgHFR22xtg73sXHEPrwzXmGbgmvozCKa1ROLMPihYOR9Gi4cgd9l86MtocGSADZIAMkIFaYCCzcR1YmtVBRoO6sHW+Fc5h9eEa/zwKJzdF4QedUTRnIIoWj4J76US4V7wD95fT4F79Adxfvg/3infhXjYRRZ+MQdHcQSic3g2uyS3gGv8fFAyuj6xm17EOK9QhRUWFAqEguHwEQaJ1ndHoKljb3oiczncgp8f9sPWpD/trT8I5+hnkvf4iXO+0gm9RHwRXj0Hou3cR2jYb4T3LoPz+PSJn9iJy6ic4Z75KJ0SbIwNkgAyQATKQCgbOL23KaHQ1sjvcirz+D6Fg+D9lG130YRcEvxqN0Kb3EN61CMpvaxD5cwciGQeg5vwB1X4GqtMCrSgHmssK1X4Oqu0PRDIPIXJyJ5RD6xD+eQlCP3wI38rRsE9oDduwl2Eb9Bxyej8CS5tbonV6GS+voqhIBdS85iXpLC0tr4d73D/gm9EMgU/7Ibh2IkLb5iK8/ysoJ35EJPMI1IJMaL4iaMESaCEfEPYDSlA+Vwuz4Vo09pIsm0QFGo+neCcDZIAMkIGkMlBmaZOl9Y3wTHoRgZXDEf7pMyjHdyBiOwmt2AktUAyE/EA4ACghIBIGVAVQI+f/1DLPlejn4rhwUJ6nBX3QSgqh2E4jfHIPQvtWIbBqDApGPC+XPIulz5fr8iqKCgoAdnLjYCB34NPwLBiC0J6ViJzYJmceVMsRqHmnoTmt0LwF0PyeqJPSVFR6KCFIUbGQoiKpjUgcdcfvY8eFDJABMnDpM5DVoh4co55D0Yye8K6aivBv30LNOADNfg6axy4H+6RwgFapiU74DU2Vg4VSpDizEMk8iMCetfCseh/uOQNQ+OaLKOhzJyzNr5ZLry4X/igq2CmhqIiDAefktlB+XS1HJxJ2PuIEISqcWXAtGM3yjqO8LxcHzN956Xd0WMesYzKQOgaiy5xug63v47C/0QL+b96FcmQD1PzT0UE+XQ22zpNCfmiubERObEd483T45neH/fV/wdL+tsum3aeoYAfnsoHdiGN3Tu2MyNGN0Hxufd6GooKc0deQATJABshAUhmQy5zeeRnB9VOgnN4nlzeJJcdJm5FIpMXXNEBV5SCiVuJCJPsYgltmo2B8o6T+ZiN9mVSfS1FBA79sYDdiTFJUHPmOooL2QnshA2SADJABEzCQO+R5eJaOQ/jAOqjZxyA68nJvRCJCIFXHqhFoAS/U3JMI7PsW7uWT4Hq7CWw97r2k2aGoMIFhGOns8tzUTauWLVvnlE6IHNkgN2Hr8kGcqbikHWlZVvi8dmyS5cxyJgOXFwNi87Ol1Q3I6X4fbEP/C8/Kd6Ge+xUIluhqlmvrJLExXM09hfDOhSj6qDtyej6CjCaXZjhaigqKCnb24mCAouLyarzYWWF9kwEyQAbMw4DIM2FpdgWcrz0E/+KeCB/bBrXQBkQUQCw7MvNDLouKyD0eysmfUPL5aFg73n1J9r0oKuLoUNKxmMexXKy6oKggAxeLPX4v2SMDZOByZiCzYR2ZXNY17nn410xE5NQuaJ58Ga7dzFoi1r2JSJHK6b3wrp6G3NdfuuSEBUUFRcUlB3UqnC9FBRv1VHDFa5IrMkAGyEA1DDSoK5PYOcY8j8C6dxA59wughoFkhIWN1euP9z0x+xAJQSt2QLWfhZpzAmreKaguK7RgcfV7O8J+qLYT8KyahpxXn0FGsxsumX4YRQVFxSUDcyodM0VFNU6fNkQbIgNkgAyQgWQzcD6ZnWPciwh+/yFUhyWaiC7ejn8qj1MVaCVORE5sRei7KQiuGILg1+MQ+mkx1Nw/gYC3mm8XUaIiUPPPwLf9M1i7PXzJsENRkWwj4PUuGeMoK1IoKigqyvLA5+SBDJABMpA6BjIb10FOh3pwjv8PfOs/lDMBMgt2NV312vpIC/nkrERoywy4Z3ZF/tBnkffqY8gb/BQKxjeAf+kgKIfWRcPbikzdVTy0YAmUnJPwrpuN3JGXRthZigqKgEtSBCTb2VNUpK7xSHZd8XqsKzJABshAejOQ3b4eXKOeQuDbdxDJ/K2KbvnFeVt1ZCK09wt4Jr+E/J63wdryaliaXwVri6uR0+46OAfcAd+yoVD/2gOIpVDVPZQg1IJz8Kz+ADn9nkRG0+vTuk9GUUFRkdYA11bDQVGR3g1UbXHC7yEnZIAMkAHjDBQMeQyBFUOiS4lEMjsTPZTjm1E8vyeyO92B3E7XoXDAjXD2uQGuvvXg6F0PluZXwzHqOYS+fRtaUW4Ndx5dChWxHoNv/QxYuzyQ1n0yigqKirQGuLacN0WF8UaituqK38O6IgNkgAykJwOZTa+Bve9dKF4yBJGTP0Lzu1MfMlZT5V4NsaxJbLIWeSXE0iQt5IemhMp8vwZNVRD+5Qt4330JIpu3rf21cPWrd0FUFPS8AVlNroJ9wP0ILOklN3HLLNs1SQu/G8rZA/AsHobcAU+kbb+MooKiIm3hrc1Gg6IiPRuo2mSE30VGLgUGRD4AkWSs0m8Rm2YbXwVrmxuQ1fyayp+zLWWZJIEBS9tbUDy9FZT9q2RGarGhOakPEbVJCUHzFUJ1ZUPNOw3VehTq2X2I/LkDkeNboBzbDOX4VkT+/BGRv/ZAtRyR4kDz2KGFAwjv/gzeCf+MJuJre40UFGKmQvzZu1+PrCZXwt7nDvjntZUZteP9DUJAKb9vQtHsPjLiVUajq9OOKYqKJBhBJefLa6adIdRUhxQVMToZ5PyS47wmO+Dnl74diA2ylqZXQIiLsvWd0ehKZLe9HkUjHkRez9vKfVb2OD4vX24sj8TKQ0RC8m9fEh3hT0VSu4gCkSsicvYXKQ5C695CcGk/BOa0RuDDl+Gf9gJ8U5+Db9oL8H/4CgKzWyDwSXeENk6VgkPzexD+ZSW8k/8NS+t6yKlKVPS7B4FFXaHazwBiJiSehzgu5Ef456XwvP1vWFrVSzs7o6hgxyjtoL0YTpqiIrGG4WLUEb+TdUQG4mcgs1EdZDWpI8VDTseb4Bz8AJzDn0DhG8+j6J3GKPygE4rmDIB7yVh4Vr0H77dzUfzdPATWvImCsS+y3WDfIWkMCAErWMzr9xDcH/eBcu5QNNdDPB3xBI5R8/9CcM+XcM0ZBvtb7ZA/6mXkDfkn8vo/grxe9yCv++3I7XorcrveEv3f/Xbk9bwbeX0flBGenDMGQMnNkMn3Spa9DmvHu5DV9Cpkt7r6wp/YrJ3R8Eo4xr6I0Obp0Nx5ieXU0FREMg/C9/U7sHa+L2llXFu+kaKCjiHtoK0t4yj7PRQV8XdWypYbn7PcyIB5GLC0uhG27vfC1qe+DH9pH/E88ka8gqIPOiK44jUEv5mA0PcfILxzAcK/roZyYquMvCOi3WjFTmhFeVAOfwvH1E5sN9h3SBoDpaLC9U4LKHuXR0OxJiAWYh4qk9MpcuQfwRI5WxA5sxe+lWNg7XS3rnu39nwcwd++h5p5EMF9X8H+RnPkdL8XOe2uR06ba5HT9jrkdLgJtt6PwP3JSERO/yz3Z8S8v2reFPkvQsd2wD6+CSztbsW5CrOGZvapFBV0DLqMy8xQp+LeKCrM0zFKRf3ymqzfy4EB+5DH4F/QGYGvxiG09WOEf10D5eRuqDl/QCuyRdewhwOAiLYjNqhGwjJJl1y+oWnQfGLN9/dwTOvKdoN9h6Qz4Fo4FlphtsxUXU2fO76P1AjEUiXNmSWTzCEcRCTzEHxrJuueARAzE75lw+VMhdhfEd69DP6F3VA89gEUj7wDxaPuhm/S0wh8MQLKHzuiv0PPEi5ha0W5CH3/IRzj/gsxq5guwoKigo4h6Y7hUmycKSrY6bwUueZvury4dn7QQ24EFcsrxAZVzWWNzkCI7L9CSNSw9ltuJD26CY6pXdhusO+QNAayWt0Mx8RmCPy8Cgj7a+SwJlUhNlOL3A/hH+fLaEqueSOh5JyRHfXw8R/hntYatm53JXz/mc2uR+6Af8C7bLzcxK1mH5MCQ/nlC4R3LpR7NJRD3yKS8Rs0T35iy54q/CgRhSpyZh9cM/pV2t9kZr9NUUHHkLBhmRnoVN0bRcXl1flKFUe8Ljm6mAy4Fo2HKtZ4ixkIHQ85U3F0IxxTO7PdYN8haQxYu9wP37r3oFqO6qCyzCnnIzupuScR+nkZPNOaIK/nncjuXR+BX76RokIs4QtvfA+O0f8ud/8Zja5CdrsbkdPxFuR0uhU5nW5Bdrt6sLa8Vu6RKGu3eUOfR8mKN6Ac2wrV+jtU258yglQk+/h5sZ4dnfUrc2sJP1UVaCUueL6ajuxu9yGjybXl7rfs/ZjpOUUFHUNagHqxjYaigp3Bi80gv58MGmXAtXAMVJc1urQp4V4OosufKCrYZia535Td6x8IHt0BzVekg8oyp5yP7BT+cQGKJ72AnA43wtK8LnJ73IGSZa8hcuonmX8icu5XiE3XZe3J0vJ6uMc+jpJ3ReSnf8M35Xl4x9eHc8DtyGpWPrSrCPVq7XCbzFUR/PJ1hHctgvLb1wjvWYbwjrlQfvlSLiksc2f6nmoalN9/gHdOD1ja3V7ufsveu5meU1Qk2TjMVLm8l+R1QigqkleW5JJlSQYuDgOuBRQVZO/isBer3DMa1kFuv0fgmT8QEdtp3TNossceCUvBHN4xD573WyOv663IaioiMdVBVovrkDvgcXjXfgTVZZERmfw/Lkfh9K4omtUX7k/HofjbWQjtXQnl0DdQDq+XAQnC+1YisGUePCveRtHMXnCM+Q+yWkbDvGY2vhq2Lrcj79XHkT/iReSPbYL8Ua8gf/h/kD+6YfS7ck8BYo+SgYea+yf838+BteuDFBWxIOJ75jFo1kX8dUFREX9ZkSuWFRkwJwMUFeasl8vVXkSH3/lWU4R/XgKt2GGg6w2oRTaED29AyUfNZeK5zIZ1LnTCMxrUgbXZ31E0ozsif2yHFvBAtf0B5eBaGXhAzToUDVTgL4LMqh0ORLNp+91Qi3IhljUpR75DYMMHKHi7PWyvPo3szncio3HVSSDt45rAv2UhVKfYeK5vuaEoEK2kEKFjPyJ/5H/TIm8FZyo4U3HB8C5XxxbP76aoYGMcDyc8hpyYmQGKCvJpNj6dM/rLRHSaCPtq4CHCH/uW9IFr0K3Iaf0/QSF+b1aTK1DY7f/CN+kphNZPknsrZJZr0dmPKOUinAHa+bvQALFHQwQvEFm9I2EZTSpiPS4jp3nfawZLm5ur7D9ZWlyH/OHPI3R8p7FlXaoqN50Hlr0K+8BHqvw+s9QrRQVFhekhNYOxUFSwMTYDh7wHcmiEAYoK8mOEn2Sem9X0Gtj73Q3f11OgFdr0j+YrIYg8Kt7V05Db72Fkt74GWY3LiwpLi2vhGXEfgisGX8iKrUu/iDC1YpYj7zTCB9fDs2Awcgc8GbMPJRLg5XS7F74vx0vRpOv75EmaXK4V3jwdzjdevJCwMpl1kcxrUVRQVMQ0iGRCdilci6KCjfGlwDF/w+XNMUXF5V3/ZrJ/S6t68Lz1nAzDqoVFOOPSGYLEut9ic7fYA+Gc0jFmX8bS/Frk9X0AvsX9oBxYA82dq1/AlLk1kQNDObYZ7gWvIafHQzGjM4n9F86xLyCwbXF0tkLMeOh4yN948BsUTmtPUWEmiHkvdKh6GaCoIDt62eF5ZMcsDFBUkEWzsGhpewuKZ7aTgkBHP/vCKZrTiuAXr6NgyOMxRYW99x3wz26FyOnd0Y69TvFy4QtLn4jrqAqUE9tRvHggrB3urPz9Da6EiBTlmj0IatZBIOQrPTuh/2KfRyTzN7hmvVr5O0w2MM6ZCpNViFkMnvdRvvGhqChfHuSD5UEG0o8Bior0q7NL1c6sHe9GyeejEPlrT0Id7LIHa8VOhH7fjoJxr8Da9qaYHW7HWy0Q3r0UWmFOUmYoyn6/eC4yX4cPb0TR1Oawdb0j9j1MaCLDzmpenZvRxX4Ody68X0yCrdPNyGx8VczvMQMrFBUUFaaF0wwGUnoPFBVsjEtZ4H+ykK4MUFSQXbOwa+36APwbZxnK5yAiOAW+nw1br/uR2aj8PgoRmSmn6z3wfP4W1PwzgFhilYqHpkrBEto4BQWjXojZnyoY/BiCK16Daj8rZzcSvg1Ng6YEZXhb19CHkdX8upjfY4a6paigqDAtnGYwkNJ7oKhgY1zKAv+ThXRlgKKC7JqFXWuPRxH4eVU0GWPCvezoCZET2+Bf0heu/rcgp+UV5foylna3onhmByiHN0QjOOn8jnhOE5GrIuf2Q0SyilW++T1uhW96U0TO7gcCxfFcMuYx4f2r4H33ZVha3xjze2J9d22/R1FBUWFaOGvbGKr7PooKNsbV8cHPyEc6MEBRQU7Nwqm11+MIHPyh+vwUZaItiT0RkZM7oVqPymhIIsRr5Mxe+FaORm6POytFfLJ2uR/+b9+Xx8fsoSfzTZnJ2wHfdzNRMKR+pZkEEX3KPvRpBPevhVaUo/ublaMbUTy7E4RgMks9VrwPigqKCtPCWRHWi/maooKN8cXkj99N/pLBAEUFOUoGR0avcSGHw5+7oQW8sTvZYnNyQRb8+zag+JsZ8Hw6Cp5PXod31bvw/bgSEesJuXk5uHMp7CP+Uy5nhLi+fdizCP32HTR3fuzrJ/tdTZNZuItntIXYhF6xjMRyL9+mWTLpnt6vFqKqZMkgWDveiXMNzMkyRQVFRSX4KxoDX9cFRYU5HRjZZL2QgfgZoKiIv6zIVerKyt7nTvjntkMk67DMXB2rk605MhHY9Tmy+zyBjCbXIaPxtdG/Jtchu8fD8H39DiIZB6A6LQiuGYeCYU9f6MvY+96NwPyOULOPp24vRYybjpz9BSVfjIe10z0X7qWUI7kxfcVoObsS49S43hLLp0Tei+yudyOjYerqp/Se9fynqKCoqAS/HpAu9XMoKszpwC517vj7yF0yGaCoIE/J5Envtez970VgURdEso9D5qgo26UWG59DPii/fY3ime1jLvXJbHYDcgf9E95vP4aaf1rOEDindZF9mYyGdVAw5BEEPx8ErSAj5fspyt66avsT/h8+hq3Pw8hucy1yO98IR/87kdf9FuT2vg++5cMQOfVT2VMSeh7JPAj/2knI632PzFeht/xTeR5FBUUFRUUcDFBUsDFOpSPmtclXbTBAUUHOaoOzmr7D/uoDCHzaC2run9CUUPmOtRKC5rLC//Vk2SEXmberup5zxgBE/tqNiO0PuBaMRkaDurA2uwKuUU8iuGZsNIxs+aun9JXmzkPo2DYUzhkM1/ud4JndHf6lr8I7vzeK5vRHcNs8RKxHdd+D2E8S2DAN9gH3wNKsfLSrqsqott+nqIijQ1nblcLvM5/jp6gwX53QTlgnZCAxBigqEisv8pWa8rIPfBiBZQOg5v8FLaKU72QHS6Ce2QfXjP7IaHBllYJC1I3z7ZZQ9iyDWmiDa9m7Mqxsfvu/wTPxGQTXT5Y5JMpfPMWvRMbssB+qpwBqUa780zx2qPKvAJqvEFo4oPsm1JzjCH7/ERyD7oW1efloV2ZhlRb/DbcAACAASURBVKKCoqJaozULqBf7PigqUtO4XOx65fezXi8nBigqyLsZeI+Kiv4xRYUWLJaiwvlRvxr7Jo63WyJcKiqWRkWFvUNUVIQ2XBxRoYX90LwFUtCIhHVCVMjXxU6Z0Vvkm9D7EKIiQFFBIzaDEfMejHFIUWGs/Mgfy48MXHwGKCoufh3QDurCPvBBBD7rAzXvFLRIuHwfW4z055yAe8koZLe7ERmNqs4e7ZzWFcqR76Daz8H1yQQ5U5Hb5u9wj38aoXUToBXZyl87xa9EJKtI7mn4dq9DyfYVMkpVcO9q+H9eDd/utVBO7YFWqP+eItZjCHz3IQpevYczFTQkOrN0ZoCigvymM7+8d/IrGKCoIAdm8AX2Afcj8El3qLYTMlN0ub6+zE3hRWjbXLjHPAZLy6qzR7sWjpEbtdWsw3B9PFSGWc1sXAeOYf9AcNUIaK7scpdO9QuRMdu/41Nk93oMmc2uR3bbenD0ux22zjfD2vlelCwegMgf23XfhoiW5V83BfZ+3FNR4zSWGUDnPdDhVsUARQXZqIoNvk820oUBigqyagZWL4R8FYnswv7ynWxNAyKKzD4dWPcOisY/C1unm8v1IbPa3AbnB90R2L8eqjML4e1z4XijkTxGbNYuKN0InndKXqv8F6Tulej0+75+F9bO98lN45mNr4S15TXIanoVrB3vgm/ZcIgkfnofkXMH4P9qAmw97oYQT2aoy4r3wD0V3FNhSjArgnqxX5tBVIi41JmN6uhPetMger5Z41tf7Drm96dfh0uEjxSNa1aTOtI2RIfCaD2Ka2Q2MmhrJm1XKCqM82GUL55fF7bOt8A9pTGUM/sh9lDEemjFToi8D6H1k1H0YSfkDnsRuUP/g7yRDVHwXm8Ef1mLSNYhKCd/hmdWF+T2uv+C7du63Ar31CZQTu2G5nfHunzy39M0RE5sQ8mifrC2v+PCvZTWtxAa/rVTIGZV9D4ip3+Gb/lwZHe+S4qW0mub6T9FhUmdv5kg4b2YI/mdpWkdZLe6QnfSGyEmslteAXEd1ik7F+nOgOj8W5pdAVubvyOv3d8k24ZH784Lb2tzY7Zm1rKlqKDdm4LNBnVlUrvQkR1y83LsTnZ0xkLzFckkeeGD6xD+dQ0iJ3+GWpAJhAOI/LUHvpVj5NKic2UjRTW4Etk9HkVg5+cQSfRS/9AAVYGydzm8k/4NS+t6ldpYa/eHEdixFKrInaHzETm+GSXze8La/vZK1zdFvb5SFxQVFBWmhdMsRiLu42LNVIg1mQUD7oVrzDNwv9sEnpkd4Z7TD+6Fw+D+bDw8KybD8+VUeFa9B89XH0T/Vr8PzxdT4FkxCZ5lE+BeMgbu+YPhntkDng/bwv1OIzhG/QvZ7W9GZuOrWf/0AWnBgFgC4XztQbhGPgHXuOdQOOFFuN9tBM/7LVA8ox08szrDPbsn3B/3g3veQLgXvAb34uFyw6f70zFwfzoW7qVvlP/7bBzcS0bDvXhE1KbmDYJ7Vk+4p7eHZ1pTFE58Ca7RT6Hg1XuR1ezatCin6vymcVFRBOXweng/aov8Nv8XmY3MGdayujLgZ+YQVtYe9RHY9031YV/PL4USwkIrzJH5KzSvAwj5ZFK7yMmd8C8dBEffWyttXJbLjZYaSzYXd98/HISafwbe5W8ip8vtldpVW4cbUfTWiwgf2w4xA6P3oRz8BsUfNIelbfnlYGZimqLCZB0KS9tbYOv9EGx9H4Wtb/3z/8XzeP7qw9bnEdh63AtL6xvTogEU9ynuV963nt8ryqX3QxDllkrDqg1RkdH4amR3uAW2Xg8g99WnkDv8ZbimdYRv6WsIbZyG8K5FUA6shvL79zIrZyTzNxklQ0TQUO1noBaci/6J57mnoGYfl1OtkXO/IvLnDiiHvoWybyXCOxcisH4qCj/qDfubrZA7/BXkDnxafq/4/oxG6SU0Mppci5xu951nKB47qXhMfdh63o+cjrdB1EEqOUrGtcU95nS+A7ZeD+rwEeK3Cz/xMHK63oOMxlUnlkrGvVZ1DblsqVF0ydI5MePQ4jrkdLoZtq53wNbjPnmPImNu7rDocoe8sc1RNLMHgquGI/TtWwhteh/hrbMQ3rkAyu6lUH75Aspva2SHNyLs48RWiA6HGMmMnN2HyLn9iGQcQCTzkFwyIZZNyL+M3+TabXncqZ+g/LFNXkPZ/wXCP32C8LaPEVo/Cf5lQ1DwdlvkjXgFuYOflaxZ29+KzMZXyaVSyVh2VVVZJfN9w6LC74FyfCsCS/vDM/wu5A94OM62qaLNJfG1Qf9vaVUPtu5362yDzv8Og/eQzDqu6VpZza9FTqey/YxE60L0S+rD1v0eZLerV210puruxdrtIfi3LpJhZfV2skXb5v/qDTgH3IHsCnkbslrWg2vsCwhsXRjtyKsV8mHo/dJK52ny+sqvq+Gc3DZm+yE3pi/uIdtkMcOS8OO8uAruWALXqKeQ1eL6mN9TXXnX1mcUFSYTFQXDn5FJYQJfDkdg1UgEvhwR/584fuUwBOZ1QMHg+qaFrizc4j7F/cr71vN7RTktGwBRbmWvm+zntSEqLK1ukEl7Ap/0Qmjj+1CObkIk+7iMc41wEBCJdeSfKkdpoIn/Wg1/ZY69cL5I0BOAVpSHiPU4lN9/QGjzRwgs6Q3PhGcg7iPZ5ZfK61na3YriWZ0RWPFa4jYj7Etwt7hHldPWqbx3Pde2tLkJ3qkNEfi0LwKrRsXvH0p9ifi9ywfJ0eZUi/FYv08uW2p6hVyuVLqcz97nTvje+Sd8HzaAf2EXBL8cidCWWQjvXw3l5C6IUIqqI1PGe0egGBCx3kUnoSzTF56XYV7aSIKvL1xH2Jsi13yLTLlqzp+yQx3+cSGCK4fBNe4FZLe5DtaWdU27abJi+RsWFSE/IpajCP24UDIU+OL1xPkr5TAZ/8X3L+1vyP8XDHoEgTmt9fmPVaJ9Fm3QQBSMeDYt/GZ+z9tRPPlZBJYOOF93CfYzvhwpfaZ/blu4xzxSbXSmivyVfS2iIfnWTIKaeTDhPnbpCWphDgJ71silTmWvXfo8o+FVcH7UF2Ivgib8RioemgrNfhbBz/rIDeKl3132f8HI5+TeEK0oV98diIhYfo9cgWBtc4NuIVf2nlL1nKLCZKJCJHwRo8pyFNpyRI40i409cf1ZjsiROTES7Z7SDLZWf0dmQ3OunxcbjnPb/A3uqc0gGmkxUqjq+b2Zv8nyiidRjhEjSo6osMC1YLTcYFW6sTSr5Y1wjP0P3HP6o3jtdIQPb5SjqqrtZDR5jt8DKKGocNDnjmKfJcSIEpSOSnaY8k7J7w0f/k7eh3t2XzhGP4esFpXXhhopx2Sfm9XsGuQNegLBn1dAPfuLDoYOy3OU/V+i5NPBsHa40/QdA2une+Bb9aYcUZc2Y4nTPwg/Io4VfuLULvg3z4e124O18nszGl6JrObXIK/v/dFlS9M7wrtoEIpXvAHP6mnwb/sEyqF1iPyxA5Ez+6L1mHf6/HKHgiinYsmDsAXR6Rf81tZDfF84CBGDXnPnQ4SNVLMOIXhwE0o2zYd32WgUTWuJgkEPIatZ1eEvk82+nusZFRWi7MVSFLHUI5J5UK51j6ttircNS+Q4y2FExEzTie1wTu+ri2MxY+ac0AjhLTNkxzPxNuhwtBxO/4TCOYMk44J1PXVTW+fYhYha0hvK8S3n+xUJ9jOyjkj7DG2dBe/UV2AVuSR0BEgQ+wLE/gCxT0DvQwv5oWQehXtmV9h63hez3MVeBseH/RA+eyglwkK1/o7Apo9gH/Z0zL0Uol6d73WDcmyz9GO6fms4ANX2BwrnvS5nR8Xsbm3xkuj3UFSYTFS4Fo2H6OShYkKYOEkUajZyfAuKP+4Cka5eRgsy2W8UkGY1roOCTv8fSuZ0hnJsi35ji4RleYlySxT+RI5PiqhwZMK1YBQym16LvP4PIX/kf1EwtTsCGz9C5NgPsrMiZyTirOuUHCacl/0MIr9vQmD9eyh4u51cGpXT5c6LtlSmunqytLwW9pEvIHx6f3Sdrc5CESJejJqJ0bPqvs8MnwkhIASBWPam9yHW9QYPbYa11+Mp+71yWVqPB5A75Dnkj2sOx7ud4V06EuGtsyGWCoh47WI5kpp/WtqwFiyJzsDp/VG1fZ6Y7XPnyQg14d2fwb9iJOzjG8tlNNntbzRl429YVNR2Gdf0fcL/F9rgWjhOF8dSVExpD+XgWmi+wpq+LfbnYjarxAX355Mg/JHZRUXB0CcR/Gq03KMQ+wfF964YBCj+qJXcm6dHVFja3AjvlJfl0kURQlbvQIHIWB3aNhsF41+pkgFrlwfg3/CRFKFawBMdmIjvZ8Y+SgxqhPyyzfb/MA/OiY2Q1eqmSt8vfWD3++D5cgpUlyU6KBL7itW+W9qvc33QDYJZM7RDVd0DRYXJOtxiJFvEXZYjctViFvtDET4tcnQjvDM7Ibft300rKoTYsXf4G4pndYRydCM0n86wb0pIlpcot6ogT8b7xkVFUHbWXfNHyNHwkiWDofz2DTSnVS5FurCUKXa11u67ckmVCs3vlevNQ5s+gHdaY4hlN8koy2ReQ8xU5A99BqETPwFiVkfnI5LxK3yrJ8Da+R7T/caK5WXt+gD8m2bLkSudPxeaJx/BX9fD2vOxlP1eS/vbUTyvp9ybIJY4qO5cSOEglxeVLkk6v3wPtTjzoLfQYp4n7l+Vg0CicyNm+sQyPM+4+shuIzqY5hpRvOREhRKUkYBc80fp5lisgxciVyvRKSoiYahFuSj69A1kNb0aGWWjEJmsfyF8ScHQJxBcNRJaobHEcMqhb1D8YQvdm4ZFUjvv2PoIb58jZwHlDGRMG6v+TS3kQ8RyGM5Zg6pkwNLyenjGP47QhneifrNibozqv6LypxFFtt3hLbPgGN8A5xrGzvptaXcbiud0gfL7Jt2iSXy5VuxAePencE1uKiPe6RFxFduRVL2mqDCZ0SdLVIgoQekgKryXi6gQTshrR/DIdpRs/hTKX/ujI0Uhv3lHZ8+PwKm5JxE++gO8KyfKjbOpckZ6ritFxWtRUWEkHrnY8CdFRSeKCj31EOsca5f74f/2fTmSL0eBxT4I0QG/FB+lywmLbBAshXYvh3d+f+S++kSVHZ1YZZbq9ygqKos8x+Q2UH5dZVhUFC55A5lNr0K50KYm618IvgpeE9mmkyAqRCQiA6Iio9FVyOlwEzxLRkY3MIu2UM9DLskrRODH5Sh8uzHyu9aDtVn5qGSWZleiaMC18M9ujvBPiyEjSOn5LiEgC20yWErgqwkoGPNSlUtmbR1vRNGEF6QvEEFUdD/Eng1nFoJrxsDx+lOcqUi1k7zUrk9RkaDppctMhehMhXwySoQY0ZTTvQn+1It5uBb0yX0+3q8+QN6Ypsjt8zDE9PXFHjGhqNBHRW3MVIjoLoFtn8gZOn13maZniSU5nnwZaMGzZBRsr/4Lmc3MEfyAooKiwiyiorTv5ny3A0SoVLFXx8hDzf4doc0z4Hnzn8jtXK9c2yRXRrT/f+Gd2gDhXQtlwAcxyKfmnICa+2d075ZY/iZmMCKh6PJzsQRdLHH0e+QAoBhcU07tQcnmJXDPGwDn8CeqjcJU8PrTcpmZ2Ashr6v3xwWLETl7AJ732yC3W+WkeqXlaJb/nKkw2UgCRUWClpcuouLCzxLLPNJ0qYemydG8yNn9CC4fCMfQ+sYyfCfB9igqLoCV0JPaERVi78c8Q3s/EvpRpjo4uixKhHX2fTcTYsmaGRp9igqKCrOJCoeIjLRhcvX5KuKxbSHm888guHIoHEMfi9k2uea+LsOty8R5f2xHcO14hNa/DWXfCjloJnNhlBRGhYTPLe9JzT4G5bev5dKp4pntYe1wB0RUqZpmpJwzBsjlw3LJZzz3X8UxmsuK4O5VyO5ZH2beoF3q3ygqktCxKS3MZPynqKjCsqp6O+1ERVU/JE3eF4672An13H65tMU5oUHMDWrJsIV4rkFRoY+bWhMVP8yDGOG7XB9yj5vlOEo2LpAzfPEwncpjKCooKswmKqztb0PBhOYI/3UguudKr7MQg15iT+mpn+BbMQrOYQ8jt8M1yGn1d+R2uRGuSc0Q2LVSzlIIn+T94l3kDXwCeYOeQt6Il2QeGu/8vvB/PhTB1aMQ/HI43HP6In9CO+SNaoC8wU/LHDqZTaJJMLOaXw/H60+i6P12MsmmZ/nEaCLN+UPk/8D+9dCKXdHQ13p/E4DImb3wrRwNa6e7TTEwUZN/oqigqLgooJZu1L5s9lQYcCrmO1WT0TNEeNLA9zNhH9sQlosUipWiQh8dFBX6yk3XWUpIron2rvsYtiH/QWbzixemmaKCosJsokIsoc3u+TACPy6DWpChy8QunCT2VwS8Mppi4PPXUDT6cRT0rIeCgfcjsHE6xKyDiNSl7F8F56Q25fo+IpFlXtd6cPS/A64h98I16C7YOsa2VREl0D6+CfxrJiK873MoIpLd6d0yJLZyfLMMiy1mPQw9xF6KkA+BncvhfOMlZLVKj4TGFBUUFeUMqyYVmqzPKSoMuRtznCxGhkTEmx8XwPFm44vCEUWFPhQoKvSVm/6zNKiOLPh3rYS1+yMXxVaE76aooKgwm6jIbFwHud1vR8mSgYj8+aN+Eyt7ZsgnBUTw88FwjXwS+cOeQ+ivgxB5LUQSzaBImDvwocp2KPI/lP2ron/oeLcDwmIfSLFTdvxFOyhCfAsbl3tDRIhco8uc5SoMC1wLx9S41CpZ/bJkXIeiogpoklG4eq7B5U9lPUMcz7n8KY5CSuEhIqSj/Sz8WxbCOakFslrfXNlRp9DGKCr01S1Fhb5yM3KWDH2ZcwrFaz9E3vCXa9VOStsiigqKCrOJChF2Oav5tbD1eRTetTPk8iTDgUxE2GqRpPHcfgT3fQ3/z6uhugvkUszAjiWwD3+2ykR1pbYS639W61vgfLcd/GJWRWzcFjnB1ryHgindYH+rPfLf7gTHjIEIbF8EkRQvGiZX3x5KOaOybyWck1uZPuJT2bKiqEhhh6dsQcf7nKIiwWaboiLBAkvN4artTwS2LoB99EsQa2RrK0EPRYW++qSo0Fduhs8SI6XZx+BZ/iZyejwAkRwr3rYhGcddeqIiJEeejeSpYEhZfVSLiE1GQspW5Fksg3J+2AuRkzujeSv03db/zhJhnsUeQL9b5nkQQiVy9hf4V7+B/AEPw9L8moRsTxyfP+hxBLYtQOTcfihnD8C7bAzyX/sXMhtdGc1J06Cu3GPonNgY/i0LJJsQobQTfIhoi0rWUXgXvIq8/o/WWntasU70vKaooKhIyLD0QBbrHC5/StDLmP5wTUbKCG2cBte4F2otQQ9FhT4wKCr0lVtyztKgHPsBxXO7w9L+tlr1v5ekqHBaIAbjYrUz8bxHUaGP6qSKigZ1ZbQmx4h/Irj2TWhFNn03VcNZQgyEvn0b/inPwd7zloSYye9xE/wzmkAMoEUyfoNv7RRYu94vlyYJQZTZ+LywEH3KBlfC8XYrhPeuiG7WruG+Kn4slmj5dy6HtcejabX0SdgbRQVFRUKGFY+TjucYioqKbqSK1yF/NKa2/RzUrMNyzalyaJ3cHBbetQjhH+cjvGMuwtvnRp/v+gTKnuUyBJ6YmhXhX9XcU3LvgyaTj+mbiq3i7sq9LZd3WI/Ct2o8nIPvk1Pa8bBg5BiKinJVEPeL9BUV0SABEHbhK4TmzpWjgWreaTkDEMk4gMipn+WyBOXoRiiHvoVycC2UA18hvP9LhH9ZCeWXL+RGTeW3NVAOb0Dk+FZE/tojlytojszoqKbRjLs11ITqzEJozxdwjHgG1tbX15oPvjRFhVXuFdHrRygqaoC1io+TKipeqSvzSljb3YKCsQ0QOrA+JcJCRi4UIWKPfgf/D3Ph+XQMiqZ3RuGkhigc9ywKRz0J1/DH4Hr90ej/UU+gcNwzKHzrFRQv6o/wzoWyLVUOr4cIL2tpd+sF2xXCQvyVchhdZjYCmtMSfzbt80k0lSMbUDynK0RG7tLrpct/igqKiosCLUVFDE8tHUpYRqcQGThVyxEED34vM3AXfzMT3pVvwfvJa3DP7I6i91qjaHIjFL39CoomvoSiiS+i6K1XUDS5MYqmtoL7oy7wLBgI7/JxKF7zAQK7Pkfkj+0QEZuEkxMRMqLrPWPch963xMZtJQjpEOd2q5VRWIoKfZWVNqJCZHUPeCHtwXoMUjSc3g3l2GaE9n+Fkh8Ww7tuNrxff4iSr95B8Yo34FkyHO75A+H+uA/cs3rAPaMr3NM7oeiD9tHwjyIE5AcdpI24Z/eCZ/5AFC8dheJV76B43WyUbPkMwUPfS/tTHRnRjZdqkjOBK0FEcv5E8eKByBvwaLnOSCo7D4ZFhagPEVI69yQif+2Vy0nEwIUYAa79v1+lGBTC0Pl+D93tGEWFPh+SbFFRyn1WuztR+PEgBA9tlpugIRLHJvNxPqqSaAfVs79EBxx2LkDohw9kLorgNxOj+Su+mSBfh77/AKEd82S7JpLlIViC8J7l8L71LCytqk5qae97FwILOkLN/wtx/waxPNJ6FIGv3oRr6IO1MjBXWu7J+k9RQVGh2xkbgZCiIoaXFOHwSgplQx3euUAmmHOO+hdEx1kk28lqWheW5nWQ0fDK6JRog+r/ZzURx9eVxxf0vxf+6a8guHKITPQjcweEAzFuwvhbWlEugvu+gbVH/ZSzRVGhr77SRlQES+RMm5iRC64agcCirvDPag7f1BdQNOphWFpeL21BrGnOaV0X1hZiGUKUeZmcqgYbEccIexJ2JexF2lmza+Ac9U9pf+GfFktxgXAw/o5BnFUiosSIjplzaoeYibqM+NeqzjUqKjSR3ffMPoTWT4Z/RlME5rRBYG47BOZdhL/5HRCY1x7+Wc1QMEh/RC2KijiBrXBYqkSFZLfBldFIZY4sQAlV+OZkvhRJKkv/VIh9F1rYDy3oPZ9dO1zm82hCS3E/4Z+WwPvmU9WLit63IzC3TTRPj9g4HsdDc+chtHEKit58HjmtRFv/v5mPqmzabO9TVFBUpLzjFwt6iorzHkY4Ma9DjsAGdy2F6+PBsL/ZCnnDXkBuv0cgpoOliBDTww3rIqNRnbizasrp2IZ1ZP1aWl2P3O53IO/VR5E/4kU4pvVA4IePEflrd3S5hypC4CXpEQ4gkv0nvEvHyoRBqdy0TVGhr87SRVSI+wwd2YyCt1vLDO6Fr92LvF53w9blNmS3q4eMRldF/Zdc01xHds7LLkGI5XtivScYLT1P2Ft2h1uQN+AR5L3+b7hn9UTohw8ROf0zRKOftIeMnHYOvjWT4Hj1Xjl4EOvekvmeYVHhd0P5/QcEPukJz5Abkd/7buT2vO/i/PW6D7nir8fdsLTWH8OfokIf0SkVFa/UhWPcKwhtmQmxVFBsuK6VhxAYQgCI9lD8F68rPjRVDgYUT28FS9uq92UUvPa4TKAX7/InGep2zyoUjGuI7I63QYTaTYcM2hX9E0UFRQVFRRwMOKd0QuTIhuhSiIpOJtHXpcuc3HlQzv2Gku0r5LKNoqktYe1w6wURUdFYk/G6tPMkEukUTngJ3s9GouTHLxHJOQnN70n0l1R5vLiW2NPhntsXtk43QSQWSsb9V7wGRUWVVVDtB+kiKtTCbAR2r5YbFq3NroCt9d+ReV4oV2Qhma/LCnIhYArHPwfPkpEI7FsbTdClI6JLpQoRywXDQSj7v0Tx+42R3f6mC8Immb+l7LUMiwoxu3JoPYo/agN72/8HmY2uSIldl73nVD+nqKhEZlxvpFpU5Pa4E973miL8yyqIZYgxO/hx3WnyDxLLMP1fvw37kH9Umq0QAx3Clovebw9lzzK5XLDaO5ADi3YE9q6Ba3pPZLW9Pa1tiqIijg5lqp1a2eszpGy15lf5w3QMKXt+mZNydBNKPh0Ma8e7YGlWt1anO8WsR+mSD2u3B+HfNAuq7UTl8tX7jli3GixGaOcCeN54EmKmpCznyXpOUaGvgtJKVOz5KhoF5WL6apkQ60o4JjRFeNdiObuor+QrnyXDXK4ah9xed0VHJ1P4O42LCjfEBnjn1M4psedk+YVErkNRUZnJeN5JtajIEknxutyEkunNZOARyH1NMWYO4rnZJB8jwtQKuw0s7gr7gPvL2YKl5XXwjHtM7tFQXdYal2/JDOB/7oDzg55pF+kplp1RVKTQgccq8Jreo6hI0PrTSVSIjnZhDsLHtsK7bCyK3m0Gx5CHkdX8Orm0qVanO0WkikbRNZuZzerBNvhZGTs/cnJXcmKEi2yiqoLI6d0oWTEG1k53l3O8NdlBvJ9TVCRoL+cPp6jQt1bZ1v1OuKc0RmjHQhlaUl/plz9Lc1kR/PkL5PR6JOVrqJMlKhwUFf+rxEgYalEuCpe8gcymV5m+Y2i25HdV+XoxW5jV7Grk9rgLnlndEf7li+jyw2Qu1f1fLSb2TOS/EMuWT/0E/6aP4Z4/SAaDEEslvUvHILR3pYxGJyIiVrdJW/QHQr99B8fUrhCDe1WVRTq9T1FBUXFRQL7s9lTIkfsSBA/+gKJ5g5HX7yHY2l2D7JZXpLwjEa9Dyh38L5nMRzm9t+Yp2zhdsHCawf3fwD7i+UrTxPHeV3XHUVTEWREVDqOo0CcqLE3F6OmNKHynBQI7l0dnLCIG9yOJaDJ/HUDB+Mawtr05pUugKCoq1ztnKio4hzhfpnqmotTvi+WO+f0egHdWJ4R+XQPVfjY6+h9rv0Oc956Uw0SbHg7I6E6RE1tlFCkRajZyZm80K3h1G8yFKCmyyeWUhbNeRVa7Oy5KP6y0jJP5n6KCouKiwHzZiQoxo1KYA9fCsTj3ypUXpczjcRxiRsG3cjTUM3uT4nfFbIUIqRf4tA/srz6Q9N9NUaGvmigqKncu47GPssc4P+yNyMmfkjKzpxVmI/jVaDhefyKlkaAoKirXO0WFPh9SIcngTAAAIABJREFUW6JC2JxYCmXrfCOK32+I8J6lMkqi3Eyt79Yv+lki8lvk8HqIvZplfcql8JyigqLiokB9WYoKg5lfa8PhZDa9HrZ+j8O7chLU7N8hkowZeojNqB47wrsWwjGhSdJZo6jQVzsUFZU7l4naV8HwfyG0dkJ047bB2QrNW4DQ9rlwvNGAMxW13CZTVOjzIbUpKkqXQuV0vRNFU5ojtHEqIucO6MpWre/XJuGs83mcIpYjCGyZi4K3WsPapfx+jER9kBmPp6ioZQdWEwTcU5Gg8abLngpxn44siPqtiQEzfJ434mUUr/sIkQLj4fy0YAki536Fe/5gmT34QhjQJNgeRUWC9nL+cIoK46Iir9st8E5rBOX4NsMbtzVf7WyA5kxF5XqnqNDnQ2pTVJRtE22db0Hh+GfhWfYmAr9+J9tVOfh1sZdDVVeMIb/cTynCUgc2TEPRO41gaX1TWvQFypZ9PM8pKpLQsYmnoOM9hqKiOsuM8Vk6iQpn+ogKwau11z8QPLrDeBhdEe0qWIzAphlwDb43qVlCKSpi2EQcb1FUVO5cxuujS48T+yvs/e6Ff/1UiNFHQw+xNjvnD7g+HprSjgZFReV6p6jQR+7FEhWl9if+O95qEV0OVWirvVwWOopLRIFSDn+LwIJOKBp2L3Lb/j26zNFk/c+yZav3OUWFySqVoiJBi6WoSEknRCxPy+l+N3xfvoHI2f0JVkqFw8UIkqogfOBreD9oiZyONyXNoVJUVCjrOF9SVFTuXCbaiIqwzDkdb0HxrPYQGzSri/JSY7WcT4LpXvYWsppfk7JcNRQVleudoqJGOmMeYAZRkd31bjjffBn+FcOh/LpK7t9DOBDzfmv9zZAPmiNTignP0nHIG/mKTBKZ3fZ6ZDX5X7LNRP2O2Y+nqKCoSEmntCbwL889FekzUyHqJ7ttPTjH/Rf+7Z9GE+OJDKMGHpEz++D7Yixs3e+iqDDgd6xdH4B/02yotj901wZFReXOZU0+K9bnIhy0Y8gjsj7EEiaZhVdPrciEmEGUfPcx8vvch8ym16bEL1NUVK53igo9wCKaVfrDFrC0vTklrMayt4rvyXaq9TVwDH5AhnQtXjcDyu9b5ayf2MsnkksaEvuJFo0SlJET1bxTCB7cDO83syDCzOYOePyilVHFMkv1a4oKA417KiqHMxUJWjFnKlLurFxzhkY7sAZHgNSCDAR+XAZr94eTds+cqUjQXs4fTlFRuXNpxJ+75gyL5q0wZCMalANrUPxeE1japGa9NUVF5XqnqNDnQ8wwU1HRZi2tb0TxOy8itO4tKH9sgyqERXWhXfX99CrPEgEXxOBZ6Pv3UDDu5aS1cxV/p5lfU1RQVFwU8DlTUblxM5ujkBE3mtSBa3ILKHuWG89dEfBA5MBwv9sIts7JGd2iqKiyfav2A4qK5NqfyDAtMk3L2YpqS776DyPHN6Nkfk9kd7wtJVGgKCoq1ztFRfVMVvWpGUVFRuOrkdP5duS++iQKJjSH//PXEd42Wy5BUi1HZW4IETjE8OyF2CcoNl97C6DmnIBy7AeEfpwP96JhyB/bDHmvPQ1rx0sn90QifROKCooKioo4GBDxpCNHNujftFxLMyqJGH9Nx5aKivxXH4V34WBEcs8ARkJnahGoBWcRXNYf9oEPJYU7ioqqmvzq36eoqNy5rMkeYn5+PjO9482GCO2YF016VX3RV/tp5K898K8Yibyed8p11zG/Mw5/VdV5FBWV652iolokq/zQjKKiLPdZza6FY+D9KJr4olyC5FkxCSWbFsqEc8rpPVAtR6Dm/gm14BzERmqtKBfCLwqhILJly//itXjflS1DR6u5J6Faf5cJ7sJHNqFky6fwfPEu3HMHoPDtBrD1vFe2axkNL909E2XLONZzigoDDjpWgRp9j8ufqvRhsT+opc765SgqyrKc3fsJBE/shhYojl0Pcb6rufMQ+m4KHKNeoKjQ6Xu4p6Jyx7Asq7X5XGzWtjS7As7RTyO49k1oIgqNgUck6zAC374D1+C7kNPyiqTYSNnyoKiozA5FhT5gzS4qynJf+tzS6jrY+9+HktntEPxyGEIbp8gcSuFfV0M5ugmKyIx9cidE6NfIqV1QTmyLvn/ga4R3LUZo03sIrh6FwKLO8L79LCyt6yXdRkvvNV3/U1TobNhTVeEUFQk6OIqKWnFqYh9EYMdnclQnwRoqd7hW4oKybyWKprZEdssrIDplRmyJMxXlijfuF5ypMMZdWWbFqGTB4EcQXDYQWr6x2Tyx+d7//Wzk9ro/acEMyt4rRUXleqeoiNttlDswHUVFRuOrYGl1A2zd75U26xz5BPKHPY+8119E3sgGyBvVCHmjGyNvTBPkjW4SfS3eH/4SCkY+B9eoJ5E/qD5ye9+HnE63Qiy3KmtffF4XFBUUFRfFKLinonLjZlqH1KAurJ3vgW/VG4icMxZeVgt4ETm5S05HZ7egqNBT55ypMJ/t2LrcDve0VlAyDhvKQi+WYvh3fJrUYAZlGaOoqMwORUU5rRD3i3QUFWVtQeSZSaQNkse3vAKZjS/fpU1ly6+q5xQVFBUUFXEwcDkvfxKzCdkiHv/HHaAc/S7uRifmgSLJV+5JuOa+nhTuOFMRs5RrfJMzFZU7l1U1kvG+b+0tkkX+qH/fFQC1MAeBPV/B2uPRpNhHxXunqKhc7xQVNbqLmAeku6ioaBt8Xdk29JQJRUUcHUo9Bav3HC5/ium/qn6Ty59S0vkox6+YqWhTD953/ovw3uXQFBH7W6u6Tqr7JBKG2FfhXzcNjgH3QIiCct+VoD1SVFRX2FV/RlGRnAa0LLvWno8hcGCjoc3aol4C+zdAXKvstZP1nKKicr1TVFTtJ6r7hKKiMkvJstN0vg5FRYKdmFRXNkVFdW4sxmcUFSnpfFTkXETSKBj4AHwbPoJWUigzZMeojZrf0lQg6EN45yJ433wKllbXG7p/ioqaizzWERQVye8QiNmFwO6voBZmxyryuN7Til0IHt6KnH5PpiSrNkVF5XqnqIgLzUoHUVRUZqliu3k5vqaooKgw1KnTazTcU5GeDsk1fxRURyZgMKGQsv9LeN99ESJZkV6GxHkUFZXa+rjeoKhIvv1Zuz2MwPZPodrPxlUHsQ7S/B6ETvyMvKHPGp7Fi2VXFBWV652iIhaJNb9HUVGZpVg2d7m9R1FBUWGoU6fXYCgq0sshleasKJwzEGqW2Izqq7nVqeYI5cgGFM9sB0u7Ww3xR1FRTSFX8xFFRfLtT26g3zhLJsOqpuir/UgL+aCc+w3e95sjt6sx24jlmykqKtc7RUW1SFb5IUVFZZZi2dzl9h5FBUWFoU6dXoOhqEgvh3RBVEzvgcgf26EFPFU2NvF8IK5RsqgfrB2MZR2lqIintCsfQ1GRfPuzdr4PvrVTIHJN6H1o4QAi2b8jML8D7H3vSrpvpqioXO8UFfpopaiozJLe/tCldB5FBUVF0huueAyEoiI9HZJjclsoB76K7qvQ1xbJsyJn9sK3YhSsne42xB9Fhb5KoKhIvv1ZO4mwyxMQOfervkoRZykhRHJOILCgE+z9jNlGLD9MUVG53ikq9OFKUVGZpVg2d7m9R1FBUWGoU6fXYCgq0tMhOSY0QXjXImheh76W6PxZkcyD8K2ZBGvnew3xR1GhrxooKpJvf0Ig+1aOgRDMuh+RsAy5HFjUBfZ+9xiyjVi+maKicr1TVOijlaKiMkuxbO5ye4+igqIi6Q1XPEZEUZGeDskx5kWEf/gQolNq5KHmHIfvu48g1qHHw0tVx1BU6KsFiork25+1410oWfY6Iqd/1lcp4iw1AjXvNIKLu8He35jgjmUzFBWV652iQh+uFBWVWYplc5fbexQVFBWGOnV6DYaiIj0dUsHwZxBaNxFakU1fS3T+LNV+Bv5ti2Ht9pAh/igq9FUDRUXy7c/a4U6ULBmEyJ8/6qsUcZamyuhRwcXdYe9/nyHbiOWbKSoq1ztFhT5cKSoqsxTL5i639ygqKCqS3nDFY0QUFenpkAqGPoHg6lHQDMTiF02Y6sxCYNcKWLs/Yog/igp9HQKKiuTbnwg6ULJ4ACJ/7NBXKeKsUlHxSQ+Kilpqmykq9OFKUZF8HxJP38nsx1BU1JLjihcEJr9L0MEx+Z2hTnm8XJYeZx/8KIIrhkB1WROsqPKHq4U5MlGYSBhWem09/ykqypdrvK8oKpLfIbC2vwMlC/shcmJbvNVQ+TghKgrOIUhRYcgvJOJLKCoqYxjPOxQVyfchiXBr1mMpKigqas15lzUCzlSkp0Oyv/oggp/1kzMN8TQ8VR2jFeUisG8trD3qG+KPoqKqEq7+fYqK5Nuftf3tKF7QB8rxrdUXfnWfUlQY8gdl25h4n1NUVAdk1Z9RVCTfh8TLrJmPo6igqKh1Jy4MgqIiPR2SfcD9CH7aG6ojq+rWJo5PRKc2sH8DrD0fM8QfRUUchR3jEIqK5NufFBXze0E5viVGicf5FkWFIX+gp7NFUREnmxUOo6hIvg/Rw6/ZzqGooKiodSdOUZG+zkhsHg0s6QnVkVmhiUnspeYtQPC3TbD2fNwQfxQViZV76dEUFcm3waio6Anl+ObSYk78P0WFIX+gp4NFUZE4puIMiork+xA9/JrtHIoKiopad+IUFenrjKSo+KSHcVFR7ETw0GZYe1FUJNooiDC8/k2zodr+0NcbEPuBPfkI/rre8ExRdfdu7fYg/D/Mk3kX9N6oWpiNwJ6vYHTvTXX3mazPKCrS069RVOizToqK9OQ9Wf6uqutQVFBUUFTEwYBzSidEjmyA5ivS6YFDch+C2IhflTGmw/ucqbj4DQlFxcWvg1i2SlFhznqJVVdl36Oo0NmkHfwGxR+2gKXtzWndppVlgc+N2zBFRRwdytoELSnRn37fBM/MTsht+3e5d6E27z/e7+KeCuPGG29ZJ/M4+4AHkrOnwi32VBgfKU/a8qeMX+FbPQHWzsnPYpzM8hfXoqgwp+1QVJizXmqyv2SJiqLP3kRW82uQ0fBKU3eyC177B4KrRhoOC86ZivTkvSZ7MPo5RcUlKSq+h3dWZ4qKJNYtZyqiDrRg4EMILu1vOPqTWmhDYK+Joj9lHIBv9URYOyc/i7FRJ13xfIoKczbmFBXmrJeK9lPxdVJEhTsP7uUTYW19PUVFEtvdinXF1+a3MYoKkxmA8ZkKDyLHNqP44y7Ib/83zlQkqX4pKs6LivN5KjSjeSpc2QjsXmV4rXzSZioyf4NvzSSKiiTZi2j8uadCx7ISbtSu9VH+ZIgKzWOH98vJsHW+GZmNr6r135BIZ5szFebvmCdSn2Y7lqIiiY1oMio3KaLi+FYUz+kKeweKimTUibgGRcV5UTH0SYS+Gg2tMEdHj+l/p4joUYGdn5sno3bWIfi+fgfWzveZukMgWORMhTk7BZypMGe91NQGGBcVCkQ0O9/aqbD3uQOZTa82tQ+hqEhPTmvi2CyfU1RciqLij+0ontONMxVJrFuKiqgjdox8DqH1kyGS1xl5qPlnENi6GNZuDxlqgMVMRd5rzyB0/CdofrfuW1Ith+H7ZgqsXSgqktU4caZCB46cqTDkD/Swa1hUqAq0YgcC330A15D7kNX82lr/DYn8booKiopEeEn0WIqKJHY8Ey38WMe75o+C6sgAlKCOFgnQAl5ETv0E9+xeyG55BTIamtOAuFHbnPUSi8my7znGvYTwlhkyJKkuQM+fpGYfg3/DdFi73G+oARabInP6PYng0R36I3MBSNb9lC2rVD3nTIU5bYczFeasl5rs0DGpNZRfvoBW4tLn0tQINJ8boa0fwz26PiwtrjPk02q6X6OfU1SkJ6dG6722zqeoMJuomDcCqv2sflERLIF6Zh8KZ/VDVuM6yGhgTgOiqDBnvVTneARLzreaQ9nzGbRip74G+PxZkXMH4Fs1EdZOxjdGW3v9A8HD26CVFOq+JzX3JPzfz4G164Om7hCI+qGoMKftUFSYs16q82niM8fbLaHs/Vy/T9NUaEEfwjsXwvPGU7C0ut7UPoSiIj05rYljs3xOUWE2UTF3ONT8v4CwzpmKoA9q5kE4Zw40tWOjqEgzx9agrtz073qvNF+H/qVGoucvZtNKPhsKa8e7DHMqEugFD23R3ykQMxX2Mwhs+8TwcqzacOwUFea0HYoKc9ZLTTbpmNgc4d0GBko0DYgoCO9eCu/EZ2BpdYNhn1bTPRv5nKIiPTk1Uue1eS5FhelExetQ804B4YCuUVct5JdLOZyzh5jasVFUpJ9jEzMVrhn9EDm7D1qwRBefpSeJCGUl83pAdMSMOjwpKn77HprXUXr5hP+rTgsCP600vHHc6G+J53yKCnPaDkWFOeulJptyTGiK8E+fyH0RCTuO0hM0DeF9K+Cd9AIsresZ9mk13bORzykq0pNTI3Vem+dSVJhIVMhO25yhUHNOAGF/qbtK7H84KGc6XHOHm9qxUVSkp2MTXKl5p3WL3lKYlYPrUPxhS1ja3mKYU2vPxxD4db2hfR5i43lg3zew9qxv+H5S7cApKsxpO2kjKpxWQAmVmmJC/0UwBOXoJjimdjG9ncRrh443GiL84zwZwSmhwqhwsPLraninNoClzU2mLhuKCnP6j3h5NftxFBVmERXnl5cUfjwIEcthaCFfBZcV58tIGGphDlyLxpk6CQ9FRfo5toyGV6HwkwnQPAVyuj9OIisfpqkI710Bz1svwNLK+KietcejCOxdI7mv/GXxvSP2iAQPbUZ2r8dN3SEQDQpFhTltJz1ExWiIWTlDouL37+Gc1tX0dhJv56tg7IsIbZluaFBCeBnl0DoUT2+VlIGSeO9dz3EUFeb0H3rq0oznUFSYRFSIWYqspnVQOKsvImf2QgsWx9cbqniUjERRBP93H8E56H5kNTNneDuKivRybFktboBz1L8Q2L4kut9HrCPW8xB8lhTCs2oasjveiozGxmO6W7s/Av+uz6E6svTckTxH83sQOr4LuYP+icwmxu8plc6eosKctpMeokJEF8w0ICo8UI5thvO9bpeOqBBhsjcYD5OtHN+M4nk9YUnCks5U+g+KCnP6j1TWeW1em6LCTKKiSR0UTu8O5Y/tEJ0cXQ/R2QsHEf75U3gn/su0m8YoKtLLsVnb3YaSOV0R+X0ToFdQCKCVINSCc3DNH5mUTokImZzT8yH4ty2GyH2h+xHyQzl7CK5JTZHdwfiSrFQ6cYoKc9pOWoiK+SOl/ekOWe73IHJiG5zv90iK/abSTuK9dsGwpxBcM9ZwQs/I6Z9Rsmx4UoJPxHvveo6jqDCn/9BTl2Y8h6LCJKLi3PnlT85pnaAc3mAo5r7su+1fDe+7r8DS+kZTOn+KivRybNZO98D35RtQz+7X3W8XJ4rQi5HMg3AlKTpZVpM6yO17PwI/fAzV9qf+e1MjMgJUcNmrKBj4sCltprQBoagwp+2khagQIcuF+NYbXVDkQTq5E84Pe5naRkptJZ7/BYPrI7hiCDSXVb//EBHksg7Dt3YKrJ3NnUCTosKc/iMeVtPhGIoKs4gKcR8NRMzsFgjvWWYoPKbwjMrRjSie3QmWdrea0vlTVKSXY5P7Fn7+0nDDK5JEKUe+g3t6x6QkZ7Q2uwIFA+5G4NspslHX3SvQNGiubIS+Hg/niKchxIpYkmhGJ05RYdJ6aX87iuf3hFgGo/uR6ozaMhDIH7oDgYhluZEz++D8qJ8pbUOPvdr734/AJz2h2s8ZmoUV5/u3fwprd3MPSlBUmNN/6GHXjOdQVJhJVIhEPONeRmjLTGgeu+52SZwY+Ws3SpaPMO1ULEVF+jg2a/vbIGO5/3XAcChZwXV428cofOtlZLcwnvFddP7zet0J/8pRiPy115DNyHvbMhPON14ydeJIigpz2k5azFTMGgQ16xCgNxBIyCfFu2vWoEtGVNg63YKid5tByTyqO+mscDzCfwQOfAcRjc6Mnb3Se6KoMKf/KK2fdP9PUWEyUVEw/J8IfvMmtCKboQ6SajsB/8ZZMlKMGSGlqEgfx1Yw4hkE171lmElAk5Fngp8PQcGgR5PW8MrO3II+UE5sNWQzYgO5sn8VnJPbJO3eUmF7FBXmtJ10EBXO6f2k+NYdCCQcgJp7Cq45r5vaRhK1O2uvfyB49EeImVTdj2AJQn/sQ3a/p3GuwZWmLR+KCnP6j0SZNevxFBVmExWDHkHw80HQRNg/Aw8hSgJ718Law5xx9ykq0sexOad2kcvpRIx6Iw/RkQmd+gX20S8nJZRsqVMVuS6KP2oN5dC3Rm5PzsJEzu6H86P+pu0QiN9MUWFO20kLUfFBT0T+3AEt4NVnK0oIqisbhYvHIbPxVXLJbqkdpvN/kZ8m8Ms30Ny5+spFnKUqiOSehndub+T2fsC0PoSiwpz+I53tp+y9U1SYTFTYutwO93utoVhPAJGwbgenBYoRPvULCsY3hLWt+ZLxUFSY3LGJwAFNr4Gt533wfvHO+TCUQd08yjbXZUVg9yqI/RllnZDR51ktrodz+FPRcLfCZvRGpzrfYfKufBu2zrciMwnhbo3+tljnU1SY03bSQlRM7QTliAgEonOAQISE9rtR/PX7yO12m+nDL8eyn0rvNaiL7O4igtwnMliDfienQSTRDG18D47R/06qj6t0zwb6LRQV5vQfyazji3ktigoDxpmqirP2fgLB33fpDysre3ARaAXnEFzxGkR0i1Tdq97rUlSY27GJUK3ZHW5G8Yw2UA6v19/OljlTRH3yrZkMa+d7k8ujFEBXoWj5ZGgBD6BGynxrAk+FGImEoez+DN63noG19Q3Jvc8k+RqKCnPaTjqICsek1lB++QJaiSsBw6hwqEheuWcpPBP+adqQ5Ym0SxkN6yCn+73wfTMVkawjFX5sYi/lEspfv4JzcltT+g5RLhQV5vQfiTBr5mMpKpLU0CezksVIrn/3ajnNnJhLK3O0iGbjyUdox1w43mwI4TiTeY9Gr0VRYXLHVjp6t3UR1Py/yoCl56kmO/oy4+yMtinJOJvR8EqZ+0K1nzW02VLMckSOb4FvcR/k97wVlqbmshthdxQV/3975x0lRbWF+3/ff2+9a86Yr2JO1xxQrxfJcAUBkZwzKIIEyRkkSM4IIlFAJIMERUDJCAaY0DM9sXs6zXSoDt9b+9QM9kXC0NU1Uw3frNWre3q6eqr2+Z196jtnn72t2XdSQlQMqAFtxwzEvAWJdORzx4R/WQPf+HrIbFjFUuNKIuOSjI1ZzR5A8cIeiPy2+9w1JvQi5Ec06wScU7tb1i4UFdb0H4mwa8VjKCosJir0Yl6Pwv/dZETtvybk18oOkrhZySnunNCaosJgOztGNkVEhQ24ysx7Zc8SWuPIgHPmJ5YdbMoclKRSzWr+KBxjW0E7cyjx6u5lFoqE1U1MyfqJKOj6JDLq3GqKDRwT2iLy+15I6J+Rn2j2SQQ2TkJe+6oqtWyZXazyTFFhzZuCVBAVBX2qIbRhNGLuXCNdBJHTO1Eyvwvsze+HTBBZpW8kch7i72yN74ZvUkOED68FYtHEbSPhYSVF8K2ZhJy2jyOj7i2WS01NUWFN/5EIu1Y8hqLC4M1mshtVZkbz2j4I/9f9EDmzL3HnJkeW3swVzR+MtJo3WyojBVcqrOnYRNRm1LkJzrEfqAE2VpKgiIojNxaSgnc/wzGpk6k3H4XD3kN4/zJjoR2SGrLEheDRHSqLS1oN621GpaiwZt9JCVGRpOrR0axjCG4Yh8LOD8FW9x+m9utkj7EX+r7MBrfDM+hlaHvmA5FQ4vuySv1e5PhmFM9oiZwPZW+WtUQXRYU1/ceFuEzF9ygqLCYqVCx7k7vhm/w+wkfWGXNuEiMeDiF4YC1c45rC3uxuy8y8UlRYz7FJIbn8FnfANaI2AjsX6LOZBpIFlOkKCbXQds5A4cAapt58FHxSDaHvjM/Cyr6KSO4Z+Bb1RWGv55Fd33g9jWQODhQV1us70r4pISq6PIHg4k6IFaYbGlsku2Dwp9Wwt3sK6RYLrU2kr8nkQdb7VeD5cghiRdmGkqSI35Oq5YFtc5DV8nGuVFjsHisRPnhM+X0uRYUFgc+oexsKuj8L/6bperExI8uxysH9geD3c1HU/xVkN77D1Bu78nY+ioryd9Ly2jTRz8nyf6YIirb3wTuqOkLbp0NCgJLyEypBOP0IPFNawd7a3DSLkqnKPbklwtm/Gb4pkAw34eObUDyrDQpa34mM2jdaot9IG1NUWKfvxPe5VBAV9mb3wjW6PsLpxwDNQDa3YDG0P39G4eD6yGpyrx4CZdEK9PFtdLnXUilcKobHgsWG3J+EHmt/HEDhqGZqE3hGzessIy64UmFN/3E5NlPl7xQVFhQVZfBI/H3UmalWGwx5uGhYbbYNLuqAgi5PWOLmiKLCOo4tveb1yG92PbwjS6u5S+FFg0K2jNeYpJHdsyzpaWTL+sj5zypz2vHdehaospNI5DkWVXtJtO9nwTPwBUtluaGosE7fiecvFUSFnK8q9HZkuwrzS6RrlB2j0qeuHw5Hv9fUpIRMTsTbIxVfFw6uh/APixDzOcouM+FnybCl/bQE7rENkN3wBqTXsIZ9KCqs0Q6p2D/Kc84UFRYWFY4xzRE+sdlYallxiZIJqsSlsto4xrSwhOOnqLCOY8t8rwrco+sitGMWogVnAS0g0CQ8mMYfKIW2iud2gq3x/RXCna35E/Bvnw+VBSr+RK74tWSsCiOScQgla0bD1qxqhZx/eZw2RYV1+k58e6WMqGj5FAJ7VyBWlHXFvSL+AJmND5/aCcf4VpCw3XhbpOrrgl4vIbiqP2QyxPDESjiEmCMDwU2T4R70GnKb3WqJbHIUFVcHq1btYxQVFhYVBf3eRmjTeFVQJ+GCXmWjgGza9uTDt3kB8j6tg+xmD8JW72ZU1rIsRUXlOTa5ARD7n5WsJy0eR+GIpgjumKtnG0u0cFwZZ2WVwrD7AAAgAElEQVTPEU1xW/LtZBT0egEZdSum5oOtyYMoXtQLkd/3lJ2JoWfJO6/9tg+OyV2R1fpZFcIgfSa9Em+iKCoqr+9caiBPBVEh3NpbSXbBKYazC8reo6grF751XyC32yvI/O/tFdsvql+f9JAi+4cPwDXmPYT/PJB41fFzHkdPpR1NO4jg+lFwD66GvJb3ILNW5YZCVaaoSK99K3LaPoHcbi8ir8er6pHb+TnYWz6M9Fq3XBXC9FI+4lr4G0WFhUVFfvuHEZjVHFH7aSCceHXtcz5O5p9dOQgf+hbuEbVQ0O4+ZDe8EWmVsCyri4r/C9/kJggf2ZB4hdcKStV6VaSULQ1PyKh9A2wNbkZ6vTvgGN8a4WMbVZXceE6MvdZXxrSjm1A46sMKHSgy/3sHPEOqQfvhy9IieElYcQmVIJp5BM5pPZFR73bYG96EzLo3VOh1xQ9GtubGU05LDZvggXWwtXrGtOuwNX9M7QuL5pxOGKdoURYCP6yosPC5eDtf6etUEBV6dsEHULL0Y0T++CHhdok/MJpxCIG1I5Hf+TFk1qu4vUfpNW9UKVvT69yOtFq3IFmZ2mwtnkRg1xKVAjz+OhN+LRMshekIfTtC+aa8JjcivWbl+Y+CHs8h+PVHiDmNrVRdSa2StHdvVG2U1ewhFE9vieDKfgitG6oewaU94Jsge3MeQFqNm0zzR1fan/n5xCZvKCosLCoy692GvB6vILhvpWEHcM4hakHEiuzQjm2Df+VgFA15B5kN7lQzPhVZIC+j5v+Ds+n/Qcnk+ggfWpt4fG/KiIogooVpKJrVp1JqhmTUug62utepMIXczs/CO6MtijfPQ+j0frWCJemHk/YT8kM7exQFw5shs2mSq2dfpr/KoJTV+B64F/RHNPf30lAug1cmuef9HoR+O4DiDdPhndwEuR30rC5iV7Xqc5nzStYAJTeF+R0eRuC7iYhmn0j4wigqEhswL9WOqSAqVHbBxlXUTVz40JqkhDlKUoNI+mGUrBiMvF6vm39TWP16iKDI6/4ivDPaw7d6PDzT2sHR/Ulk1DVeA8fW5AEUL+iOyG+7Eu5f/3OgrP7KxETeHwjtWQzP1FbIano/0mpUrLBQ9TjqXAdHz6cQXNJND/H6nxO9sl/KKyoy6tyCwi5V4Z7QBL7lwxD8ZqgSFcGl3RFc0hXBlX3Ve75FfZDb+y3z+akgX30pX3E1/42iwuKA2Zr8E8Vf9tFnlZK0eRbqJsmLyNkDCGydAceE9sjvWx25HZ9CRr3bkFbdfGeXWecGuDregsC8Ngif3Jb4vpFUERWRkIph9q0Yhdz2jyK7SRVk1LnZdAeaXvMm2D+4B/ldnoTj02ooGPo+vF8NQ/joBj11opEMMBcZg+Rm3r9lJrJaPKZCrCrDgTqkZsWBrw3XrIi/RKm3IcIw/PNKeBb3R/6gBij46CVkf3Cf6e1YZkN70ztVfHbo+7m6aIo/wSt4TVFxbYoK4UiKTxZ0eRISmqjq0EQjV0DOhT8aC/pU1iTv8tHI718HuZ2eha3R3UnrFxIaI9nd8rq/jPz+tVE4tjV8q8chcmwjovZT0HbPhXdsbcj+sLK+kuhzRr07UPjxq/BvngkJf5TxMik/sRiismLx8zoUzf4EBUMaIq/n68ht8whs75mflTG91o3Ib3kXPMPeQuibzyBpgY38lFdUZDa6R6XID64egNDWSQhtGqevUqzsh+DyPvqqxdoh0LZNhWdGJ+R0fA7pdW4z3I6Jtj+PM+YbKSosLir0ojyvQNs9X591TZawKPMmWgASnhDetwQl8zrD3vZJZDS4C2pJufZtSKt1K9Jq3ayK56XVvAmXfpR+Tpai5VH7VqTVvg3p8qhzO9Lr3IH0uneqR1bTB+Ad/jZC341F1HYMCPnLzujKnlNFVETDaoAKH1gO/6zmcPV/BTmtHkJ63Tv+srXYq8x2NcWWcfaucZNaGpYl/gs/yj57c6ntdZtnNbkf3qHVEFjYEaHt05SQjHkLr8zG5f20zMhFNGgHV8E7vh6yGleptA2c+V2fRuDLbogWSD5+AxVyL3LtMiBHTm1HaP0wOAa+q3Nd5w7Fu+Je2vH8Noxvz3Ovz+sz0t/K+s15fSa93l0o7P0Sgos7I3xii77X6iLnd7m3KSqMDZwXuvFIhZWK+PN2TOmGiO04Yon63gtAFnNkInxkPYJf9UJhn9fj/Fupb7tknzivL5SNG3XvRFazh9WNaWj9cEQOr1UboOPHjMjp71E8vytklSH+Go28dkzuohI1yGRCUn/UpJ5L7fvSNo1HYEYTFPZ4TtkqTUK5ysYBZavzxoFzfqPM38uz+PxSvx/nP+S74sdcm4wFg1/V/ce+JYYnXMojKiTsKavlE/BvnKp8ZWB+axUGJuJC2zYF2pbPEfr6YwTnt0FowyiEvhuD4gU9IHvjjLQdj02+fyuvTSkqLC4qyoryuGf2QPTMfsBg/uy/OcdoFAj61Kx1JOMYAge+Q/HWBWoWyDP/I7VU6x7TAO6h/4HrszfhGvgaXANeLX28BtegN9T77sFvwz30HbhH1YZnfCN4prSEZ2YneOf3hvfLgfCtGA3f+mko3rIQxTuXwf/jNwif3q2WhCW0JOHZoFQRFaU33LKnJZJ+CNrRrQjsWY7ijbPhWzUO3kWfwjuzMzyTm8M99j24R9SEe/BbcA14Da5PX4Kr3wtw9X0erk+eQ1GfZ1D08dP6o88zcH3yrP73ga/DPbwGPBObwDu3J3wrx6Jk+2Jox7ciknEY0cIMfWYyHPobBsl4Q9ox/Os2uKZ3QdYHDyC91k2VtlKR2eAO5PV+A8GfViUvdDDeSFoAMV+hHtJwYrdi2rf+C3iXDIR3Rgd4JjRW+5bcn70F18DX4/rMq/rvg6pB/uYe8m/VZu6x/4VnUjN4preHd053eBf1g2/ZcPjWTkLxpjko3rEUJbtXInR0G6K2o5CCgkbqDFBUJH/QTSVRIaGujmENoMnNpc8ZT7ax1yE/hK2o/VeEDm9W/s279DN4ZnSEe3xDuIf9Rx8zzo0hf/UHl/SFETWU/5O6Nt55veBdMQrFG+fA/+NahM8c1McLd54+CRW3ghDNOg7/+vFqNSNZ4YgFn5am2PbkG7PJ+UeXjQXFTpWlLnp2vypQW7xhBrxLB8Mzq4vy4e6RtSE2cQ16/X/HXRmDZdwd/CbcQ97W/ceY+vB8/gE809rCO6cbvAs/gXfZUPi+majsV7ztS/j3rlJjQTTjcFIK/JVHVOS0rgrPuAYqs2BwYQeUDH8ZoW1TEVwzCIHpjRBc0A6hdcOgbZmEwOwPIasZJesnwtbM3JpG5b1B5ueu3E9SVFhcVJRBndP9dRW2Esn5EwgbKFp0voOL/13l5i9Wy6JR+0lEftutZp3C+5aq5WWpihza/oVyCuIY1GP7NGg7ZkDbORParjnQflikwk7Ch9cicmKzikuNnN0PcfrR/LNqdlVygEs6QkRCxmeRU0VU/M3OJSoXuszsSaE5KbgUObEF4UPfIPzTV9D2zNdtun0qQlsmIbR5or5s/N0YhL4dieC3IxBcP1w9SxXp0OYJqm3kuPDBlYic+h7RrBO6vUWIRpO4ZyL+WkpfS5uGf/sRnrm9kdPpBUvMMmU0vA+O8W0QOLAB0PzGWbvAdau3ZJ+Sz6FuECSkMHJ8I2RFStu7oLQNz+8zX0DbMb20z8xWbR3+aSnCv6xG+Nh3iPy6A5E/f4QM/hJKFnXalIiQ2HV1HepmytgGdIqKKx8sy3zxxZ5TTVTkdHga7pnd9GKRZkw0yGSVMxORtIOqkGR4/zJou+co9kPbpkB/TNXHFOkPu2ZB2ztf+b/w4XWQ1YeI7ZjO/2UmnlQ9nL3L1Ep7sip821s+BNe496Gd3AGzV3djJUUqtDKS/jMiJ7cqH67tXQipkxPaMQ0hGQfOjblfIKT8xwz1d23PPCUOwz+vQuToBkR+3Y7IH3vVKotEIYhtJPOjhLqpVZck7Z8rj6go6PkCAos6qjYPTGuI4r7/1M95yyS1ryO0eiBCGyUcahj8I19B8KueCOyYC8kIVRHhwRfry3w/cf9IUZEiokIgl0wtgQPf6htrL3aDc629n4qiIpE2khWliKZmp2OhYlWYLRb0qmdVV0KJBmM3momclkp1HAkjcmY/ir8eAlsFb8wuj/N3zuqrr1aYceOUkNEq/yCKisQHzYsxl0qiouwabK2fReCXTUkp9lapVEsiheO7kN3+BUjITdn1GX22NX0IxUv7I/LHPvMmJSrVcIn/83KJij5vILjsI2ibJyLweS2UfHwvtO9nq70wETWBsk2lzfdProuSPvdDCvSGds+Ha8AbsDe+M2ntaJQDHl9+f0lRkUqiovH98M3ugPDJrclLl5m4T7HGkdeKqJBidLJsLvsDZKZaRIR6RPT35G+V8BMLFitBIdmWsts8o+KBreKAJduJZGdyDqkJbdds82YbK8HuRv8lRUX5B8ny8pxqokL6R1azf6JkWX9EzvxkFKnKPT6iIZJ9Gt4pHyKndfIyzsmewuzWT8GzfBwkvTE4MXGuncslKno8Dwl7kiiHwLRGKO77oBIV2vZparO4JL1QIU8jXkFJ/0cgGaECO+Yhp8OzevhsCt2flddPXO2fo6hIIWglXV5Bt2dQ/PVglTdf0tRd8z/XjKiwXktLSIAKeVo8EDndKiCV5BX21TJRkdOmKlzjm0A7shExd471DFkJZ0RRQVEh/UPquhT2ewv+zbOSn1q6QrmOqX0CwTUDUdD75aTPcBcOfQ/avqWIFmVTWJS2a3lEhb35g3ANr43Q9llqg7h/1GsqlFfqZPin1Edo7RAVBhWYXBeBqQ0QXN0fJWvHwdbskaS34dV+M2+V66OouMIbFSs0XMHHbyC4fiSijszENzhXqMM38Z9RVJho3It8tayWhIOI/P4DipcOgIQIWKFfXOocMtUqXyeET2zVw8gqaWXnIhat8LcpKigq4vuLY1wbhE/t0lN7p2jfkOQFsgehcGDNpPujvNb3o2RSPYR/3amveKaojZLpaMojKoQx24ePwv/tJEjmruCCtgitGQi1v2LA4/BPqI7ggjYIrRmgwqCC346Eb05nZDZOXhaveM75Ovl+73ybUlSkoKjIbHQ38vtUQ2DTZLUBOpmOIuW+i6KiYpssLPU2siGbLl1fdFChARIicL5jsdrvkqo3q8WjcM/srsIHVcaxirWcpf4bRUXyB9dUC3+K76NZLR+Dc0JraH8e1JNoWIrW8p2M9OnIyW1wjG2ZdH+UUfcW5LZ9BCUzW0NupmVjdcIZC8t3OZb/VHlFRWbDKvCOq6vCnLSd05W4CMxpDv/oN+CfWB3Br3roiSt2zYZrantV30j8dTyffJ18f2WWTSkqUlBUqGXr9+5C4aCaKv1aNPOwPhCYkI/f+p4thKgjA86Zn5jqhBwjmyJyZH3ilb8tb8jLnKDkVi9xIZr+C7Tv58A7uSly2z9hqs3NcHo5nV+AZ04PaEc36THS12KfkTrKnjwED6xTyR/MsLN8p635Y/Bvmq7q4FyGrov+WeLYAz+sgK3lU5ZnLZVFhVSotrd5HP5vRqtsTSpdcar1DVVz6Tc4p/UyhRWpDF3Q8VH4ZndUmdokc5/KxnZReq/uP5RXVKTXvhn57R+Cc3g9eOb3QWD5pyrLU3Bhe6jHik8QWDNUZSLL6fqqKW1nlo/j9/5d7FBUpKCoiAe5oPcrCK4agIj9FGTTrBmFviztGtVKRab5omLUNSoqZJk/oumF+87+gsCaIfAOeB65H9yKzNrXpdwAkPbu9chuei9801pCO7QWsYAPkBSL11g4gy4q1lNUJNH/p7KokDEls/5tcH/6LxXzHpNNyVowtfpFaVG5ooXDVEG4s9VvMMU/qVCoiXWg/fyNqv1zLfoPuScIH1oD3/h6kJWI+HuSS73ObHQfvNNaqXEktGkSQhsnIPBVb3jG1ElKNfRL/W/+7e8CwAybUFQkcVAxo4Eu953SofN7vICSxT302ROn7draSBbREHXZ4Zz9abkd2+VseqG/O0Y3g6TAU7UCLK2yknhyapB2qxoa/g2fI/+z92Bv9wyyGt2JjNo3Vlq17Au1T7nfq349ZOYsu+XD+ubtHdNUCOE11a6yUuErRPCXjZCUouW23RX6Sq5UJNAXY1FEC84iOLcl8jtUNa1tLtTmUmjV1uhOFH32DoJrh6hkICkVJlg6ARLYsxTOge8go4E5KUklFCr7g/th7/YGPEuGqux3anJCMvRdQz9SU8k3sT6y3q8CiZ64EFPnv6fCUD+sCqmRkt/9ORT0fA65HR5HVtP7kVbzpnJ9x/nfyd/LZ/uKshNFxRUOlBXVMOX9PyoUqr5khXoaRROaw/vNFIRP7y3Ny59iM01X4pDVABJWGwulwI9ZS95l7eAY3gjhgysQk2quSSoedCWXW2GfFbvKvgl3LsJnf1EV0D3zesM56N+mDdJlNq7IZ6koLMWtnINrwL1gIAI/rkE073c9jDCuUm+F2b1C/pGkJI6oTfYSMhj4YbmpYUUUFQk0aiWKirL+l930bjj6vgpJEx3Yvx4xR4b1J6rK/JavENqPi+G9whn0smu/0ufcHq/Bu7gvtJ/XqCKmEiJ6Ve+1EN8oaXWDxZCCnb6xtWBrdFe5RUWZfaVAoaT7ttW5Duk1U2/Fu+w6+Px3QUNRkeKi4nyoJWuCb25XaAfXIFpoKw3v0FI7LEoGDHFmcjMvDk2qIwd8iLrzEMk6Be3IBhSOaWHqLEdh/3chy7XhtMOIuvKVU1VF5+R8pF6Eij9O4ZkqOX8Jcwr4ECnMgnZ0M4qXDUB2i6qw1bseWfX/kZorE+Xs34UDJe3hDERsJxDzOXXOpOCgsJeKP3Le0qbCZmnRRLkRiBUXIVJoQ/jUbhSbnLpRiYrN0xHN/S1hC0oKz9TbU7El4esV3tRKxbyWyO9YsSsV548l8nvhsEbQfvoaMZcd54psWqVPlPEtPjjgQ6zIjvDpPSq0xv3Z68hscIepY4LYR26I7U3vgHdkdQQ3jEPkzMFS/xEsFRdXif8IB4GQX21Ql31OkexTCG6aCPfgirHzhdjke3+/obeCTSgqynnTYYXGKs85pNe6BfZWjyK35xsoHN0CwR1zEU0rdXRyg5FSP7qYiBW71EAbSf8Z4WMboe1dgNB3Y+CZ3gl5/Wojp0c1ZJpcyTmz0b2wd3geOb2rwz2tk0p/p/20FJFTOxDN/hWSzlANuill39KTFTHhsiPy+x4EtsxA/vBmsHd/U2V2Sq9zG9JqXI/0GtfjbDmXuMvDqdU+k9nofuR0fRnOke+hZPUIRE5uRUxCCUP+1GtREeChEtWm0awTiJz+HuEDy6Ftnwr/sk+RP7gR7D3/jex2zyGt9m2m3XjZmj8O/7Y5iOb9kbANo+5cBPavha3V06adZ7JYVHsqZrXVi5MmfMVAtDAdwXmtkd+x8nP1ZzZ+EHl93kHJsn7Q9i/Tsw1apD6ShPBFbEf1MWHHdJR82Rv5n9aCve3TyHr/bqTVMD+cRiIF0mvfhKwm98Le/jnkD6wP/+rhCB9Zj2j+GbUqaACFyjtU/Ic7F1H7r2pcCP+yWmVoCn0zGCXzOiJ/QD3YO/yrwuycrD7K7zFfiFBUXGWiQjqNhHak17gBmY3ugWNwPbjn9IFv/QxV/EtlinLYECt26jP+aoa9MnyXCIYwYloAsYAHMZ9DhWzJrGY045ByZJHjmyFxm/4tc+BeOhKuuZ/APbUt3GPqw9n/DeS0eghpNW+s8Jtde4uH4BzwJlxjG8I9vTPciz6Db+1UBPZ8pQa4yOldEAEk1yIbHtW1BX367Hel2VsC6Us3XQe8KvtPNPd3tV9CNhx6V38O18zucAyqiYwGd1n+Bs6MwUFiyrMa3YH83q/BNaUD3MvGwr9nubJRNP9PZTMVO63EeSXNQMrqiYSnla46qIE//wyitmOqKnLk1+0IH16H0N4l8K6aqEK7XNO7wDOxCVxD/oOC7s8io655QiK+XWwfVFUCLXxymxIWqm9L/y7vI+8PRP78Ef7NM1QmqfjvtuJr8be+yY2h/bAosevN/R3RnN8QPrkd3nH1kNPifkv0Q+GloMe/UDSmMTxLBiO0f5ViTcSimkwR4W3m6oXs7ZJxotipMv0p1k/thH/rPBWi5fmiLVxDa6Cgy5PIqFO56a0z6t2Owo9eRdHnreBdPhqhA6sQ+eMHlQFN+mos4C0dByrJf5SOAWrVssSlwnlFxEazjuv+49ROhI99B//OxfCsmKDGNhkXXBOaoWhwDTg/fhEFHR5GRu2bLcGmFf3AtX5OFBVXoai4ENSZ790Fz6iaCKwaiND+FaoScjTvrJ5vW7JGycCgBXSHJ+EScuMkM57qIWEgl3jIjc65z0q4RWnIhXyPLE3L0ql8t+ZHTGZA5IZIbmy9BYjkn0U4/Qi003uhHVyN0NYvEFzRH/7ZLVEyvgaKh76IvDZ/Da6SccgKoThqL0vtf6jl77R3b4Ctwa0o7PIoike9jZLpTRFY1gehrVOhHfxGXVvYdlJVY5XwE5WlS2b7JIxL2TwIREJ6mEq83f/H5hLOcqlHXPtIW5S1QZntxe5+D2KuHBXiox3bitC26fAv7AT3oFeR2eB2Fd6UXuO6ChdpF+LVKu/l93ge/gUdEdw5B9rxbQhnnkDMU6DfHKg2lD4TLO038X0mknifERZUmF9pv5Gwg7J+IzdWzmyEJezvj/0qNa62ax6Ca4fDv6gLSibXh2/Yayjq+ShkQ6nYUTJeSZ+p6GxdsrrnndwMgW+GIbhjJoLbpiEo/bs8D/msHPPtaPhmtkfm+3/5AKuwcf55SLiNe3A1+Jf0uvLrVTbR7VOy4jPkd3kKmfUr9wb5/OuT39U1fvYa/Iu7IPT9LGi/fo9o3hnEStylfs0f1x803Q+dGxvifFS8bzs3fpSOG4r9gB5uEyxR4UTRgnSEf9+H0L5lCK4dBv/Uhsjv9ITOdr2KZ/tCtjn/PfGp7gEvwT+3LYKbJ6uQ0kjmMcRc2XqRQSP+Q+x3zq4yTsePu3/3H2rlUsbd0jEgav8N4TMHoR3bgtAPSxBcNwqBxV1RMrUhikdWQ17bvwqaiv/guGD+DP/5/KTq7xQV14iokMwKWU3ug73dU8jp/hpyer0D18QWCK3qD23TeGi756iNyJETW1Q2CwnpieafheTilmJnkoJSRIAsOauHvJb3XHb196jDppZ7o/ZTiNqOIpL+i5rhjZzeifDR79R3q7ClHV8gtGkcQmuHILi8D1wTmyPno3dVOEZer9dQ0PN55LR7EtktHkZ20/uQ3fiuczdH0sl0B2eNUBw5F5X1ovr1kFnuzAa3IbvJPcj+8J/IafcE8ro9j5zur6trk+XikvmdEVr1KUIbRkLbNhXhvQsR/nkVwsc36SszGYeg7FdwFrEim25fsbcIEZlVkoFbBgURZGUP+V3eLylCrNihjpFK6yrs5c8fETm+CeH9X0PbMUOvaPpVT7jGNkZOz7f082vziJ69o0bpis9VHOKUiJPObHAXsls9ipyuLyqbqXZc1EPZUtsxDdq+JQgf+Va1n3CvZm8dGfoKlcxMevNVBV69zxTqberO0W8snDZEC9L0mXuZKZQVurP7dRZObFFFtrR9X6oqwaEtExH6doTiRzhS4Qe9/oOcnm+ioNeLyOv8jDrP7GYPIKtxFdj+extE7KprlhCNGnrfScQGiR6TVvNmZDV7CDkdn0ZejxeQ2/V55HQp30M+q47p9Cyymj+CVCiGJeE2EnaT0+6xK75e3S4vKPvY2z+lbt7FpyRqe7OOU6t571dBbrtHUdDrBeT0elsfR1YPQGjjeGh7FiB8eC3Cv27XVzNsx+L6RNw44i3UxxN3nppsUf0g+wSiZ36CWm37eZUak0KbxiO0egBK5nZAfr9ayOv5qkpKYm/+IDLr364mQCqD7fLYV1/5vAv2VlWR0/lfyOkhq9uNEVzaA6F1Q6Ftm6I2lYePrEPkt12IZB6GrB7LykHMmYWY+AlPftyYK/6jQE0MiTCJOrPUZyXBRDT7JCIZhxE5e0D5j/DJrQgfWgtt31Jou2ZD2zoJoQ2jEFo9EP5FXeGZ1Ax5fWsit9ebyOvxMuztn0V2q8eQ/eGDyG5yNzLqxglaGRM4LliuL5aHwcr4DEXFNSIqyuCSm2AJj5Lf7R/cC0fvZ1E0oBqKhtVB0dgPVNiHa/ZHcC/8DO4lI+D+agzcX4+DZ8Xn8KycBM+qyfpj5SS4V0yEe/l49Xf3sjFwLxkO96LBcM/vr0KVXLN6wTWtC1yT2qBobFMUjagP55DqcPavBmefF+Ho8RTsH9xzrrPKprfMOtddcSaJsmuz0rNkt1BZLUqdsV44qaqyt7Pvq3AO+g+KRjRA0fhmKJrcDq4Z3eGa21e339IRcH89Fp6VE3Vbr54Kz5ov4FkzDd51MxDYuQDB3YsQ3LUQJVvmwvftDHjkM6unwCNt8tVoPexlZi+4JrdD0ZgmKsuR85NX4Oj+OOxNquiDcc3rIOdpJbtZ9Vykz0jfUe3Y6TE4+76CoiHVUTSqIYo+bw3X9O6Ke/eXw3T7S/utmPC/fUb6zsrP9bCC5eNUeJWE9bkXD9Hba15fSN9TLEzpgKLxzeEc1RDOobXgHPSW+p+OXs+ioENVZNQuXYWofr3qM1bOoCKznJLpRZ6VHcWWl3nEH2NVJi52XvHnfrnrvNjfL/bdVnk/3lfbP7gPjt7PwSnjyIj6KJrQEkVTO8M1q/d5feK8cUTGE/FXX49T4a3uhQPVMa4vOqFoXDM4h9VRYabOj/51LuQm/v9axRaXO4/4MTe7SRU4uj0OR5+X1Bgge7iKJraEa3o3uOb1g/vLoXB/NUr3/8p/fP7XmKv8xyS4l0+AW/zH12PhXjpKP2bhIHW8a/bHcM3oAdeUjiia0AJFoxvBObS2yt7n7PcqHB89h4LOj4hLkrgAAAmZSURBVCC3+T1Ir3WT8v/x49TlroV/54rF5RigqLjGRMXfgFCzmDLIV0Bnqcj/dZW2a0adm+Ho/BBcvR6Fs1tV5La4x5JhEn/j7Cprj4oMCajI/3W1txuvzyQ/b4ZvN+M7rzI/VF6e6UNM4v4a5elS3FFUEAp9abOilje5lGpoZUBCWiTWWsJbbA1ug4gMK4ZJXMrpXBV/q0iOK/J/0R8a6p9XBduJMmAGp2Z8Z6LXl8rH0Y7s1xXEL0VFBRn6mh5saGM6NDJABsgAGSADZIAMXNUMUFQQ8KsacIo5LvuSATJABsgAGSADZMB8BigqKCooKsgAGSADZIAMkAEyQAbIgCEGKCoIkCGAqPzNV/60MW1MBsgAGSADZIAMWJ0BigqKCooKMkAGyAAZIANkgAyQATJgiAGKCgJkCCCrq2aeH2d2yAAZIANkgAyQATJgPgMUFRQVFBVkgAyQATJABsgAGSADZMAQAxQVBMgQQFT+5it/2pg2JgNkgAyQATJABqzOAEUFRQVFBRkgA2SADJABMkAGyAAZMMQARQUBMgSQ1VUzz48zO2SADJABMkAGyAAZMJ8BigqKCooKMkAGyAAZIANkgAyQATJgiAGKCgJkCCAqf/OVP21MG5MBMkAGyAAZIANWZ4CigqKCooIMkAEyQAbIABkgA2SADBhigKKCABkCyOqqmefHmR0yQAbIABkgA2SADJjPAEUFRQVFBRkgA2SADJABMkAGyAAZMMQARQUBMgQQlb/5yp82po3JABkgA2SADJABqzNAUUFRQVFBBsgAGSADZIAMkAEyQAYMMUBRQYAMAWR11czz48wOGSADZIAMkAEyQAbMZ4CigqKCooIMkAEyQAbIABkgA2SADBhigKKCABkCiMrffOVPG9PGZIAMkAEyQAbIgNUZoKigqKCoIANkgAyQATJABsgAGSADhhigqCBAhgCyumrm+XFmhwyQATJABsgAGSAD5jNAUUFRQVFBBsgAGSADZIAMkAEyQAYMMUBRQYAMAUTlb77yp41pYzJABsgAGSADZMDqDFBUUFRQVJABMkAGyAAZIANkgAyQAUMMUFQQIEMAWV018/w4s0MGyAAZIANkgAyQAfMZoKigqKCoIANkgAyQATJABsgAGSADhhigqCBAhgCi8jdf+dPGtDEZIANkgAyQATJgdQYoKigqKCrIABkgA2SADJABMkAGyIAhBigqCJAhgKyumnl+nNkhA2SADJABMkAGyID5DFBUUFRQVJABMkAGyAAZIANkgAyQAUMMUFQQIEMAUfmbr/xpY9qYDJABMkAGyAAZsDoDFBUUFRQVZIAMkAEyQAbIABkgA2TAEAMUFQTIEEBWV808P87skAEyQAbIABkgA2TAfAYoKigqKCrIABkgA2SADJABMkAGyIAhBigqCJAhgKj8zVf+tDFtTAbIABkgA2SADFidAYoKigqKCjJABsgAGSADZIAMkAEyYIgBigoCZAggq6tmnh9ndsgAGSADZIAMkAEyYD4DFBUUFRQVZIAMkAEyQAbIABkgA2TAEAMUFQTIEEBU/uYrf9qYNiYDZIAMkAEyQAaszgBFBUUFRQUZIANkgAyQATJABsgAGTDEAEUFATIEkNVVM8+PMztkgAyQATJABsgAGTCfAYoKigqKCjJABsgAGSADZIAMkAEyYIgBigoCZAggKn/zlT9tTBuTATJABsgAGSADVmeAooKigqKCDJABMkAGyAAZIANkgAwYYoCiggAZAsjqqpnnx5kdMkAGyAAZIANkgAyYzwBFBUUFRQUZIANkgAyQATJABsgAGTDEAEUFATIEEJW/+cqfNqaNyQAZIANkgAyQAaszQFFBUUFRQQbIABkgA2SADJABMkAGDDFAUUGADAFkddXM8+PMDhkgA2SADJABMkAGzGeAooKigqKCDJABMkAGyAAZIANkgAwYYoCiggAZAojK33zlTxvTxmSADJABMkAGyIDVGaCooKigqCADZIAMkAEyQAbIABkgA4YYoKggQIYAsrpq5vlxZocMkAEyQAbIABkgA+YzQFFBUUFRQQbIABkgA2SADJABMkAGDDFAUUGADAFE5W++8qeNaWMyQAbIABkgA2TA6gxQVFBUUFSQATJABsgAGSADZIAMkAFDDFBUECBDAFldNfP8OLNDBsgAGSADZIAMkAHzGaCooKigqCADZIAMkAEyQAbIABkgA4YYoKggQIYAovI3X/nTxrQxGSADZIAMkAEyYHUGKCooKigqyAAZIANkgAyQATJABsiAIQYoKgiQIYCsrpp5fpzZIQNkgAyQATJABsiA+QxQVFBUUFSQATJABsgAGSADZIAMkAFDDFBUECBDAFH5m6/8aWPamAyQATJABsgAGbA6AxQVFBUUFWSADJABMkAGyAAZIANkwBADFBUEyBBAVlfNPD/O7JABMkAGyAAZIANkwHwGKCooKigqyAAZIANkgAyQATJABsiAIQYoKgiQIYCo/M1X/rQxbUwGyAAZIANkgAxYnQGKCooKigoyQAbIABkgA2SADJABMmCIAYoKAmQIIKurZp4fZ3bIABkgA2SADJABMmA+AxQVFBUUFWSADJABMkAGyAAZIANkwBADFBUEyBBAVP7mK3/amDYmA2SADJABMkAGrM4ARQVFBUUFGSADZIAMkAEyQAbIABkwxABFBQEyBJDVVTPPjzM7ZIAMkAEyQAbIABkwnwGKCooKigoyQAbIABkgA2SADJABMmCIAYoKAmQIICp/85U/bUwbkwEyQAbIABkgA1ZngKKCooKiggyQATJABsgAGSADZIAMGGKAooIAGQLI6qqZ58eZHTJABsgAGSADZIAMmM8ARQVFBUUFGSADZIAMkAEyQAbIABkwxABFBQEyBBCVv/nKnzamjckAGSADZIAMkAGrM0BRQVFBUUEGyAAZIANkgAyQATJABgwxQFFBgAwBZHXVzPPjzA4ZIANkgAyQATJABsxngKKCooKiggyQATJABsgAGSADZIAMGGKAooIAGQKIyt985U8b08ZkgAyQATJABsiA1RmgqKCooKggA2SADJABMkAGyAAZIAOGGKCoIECGALK6aub5cWaHDJABMkAGyAAZIAPmM0BRQVFBUUEGyAAZIANkgAyQATJABgwxQFFBgAwBROVvvvKnjWljMkAGyAAZIANkwOoMUFRQVFBUkAEyQAbIABkgA2SADJABQwxQVBAgQwBZXTXz/DizQwbIABkgA2SADJAB8xmgqKCooKggA2SADJABMkAGyAAZIAOGGPj/29aoCtZdEQAAAAAASUVORK5CYII=;" vertex="1" parent="1">
          <mxGeometry x="162.12000000000003" y="490" width="69.41" height="30" as="geometry" />
        </mxCell>
        <mxCell id="VP1_t2__LC_QrhO8QvFU-38" value="eth0" style="rounded=0;whiteSpace=wrap;html=1;glass=0;sketch=0;gradientColor=none;align=center;" vertex="1" parent="1">
          <mxGeometry x="720" y="300" width="100" height="40" as="geometry" />
        </mxCell>
        <mxCell id="VP1_t2__LC_QrhO8QvFU-39" value="eth0" style="rounded=0;whiteSpace=wrap;html=1;glass=0;sketch=0;gradientColor=none;align=center;" vertex="1" parent="1">
          <mxGeometry x="260" y="300" width="100" height="40" as="geometry" />
        </mxCell>
        <mxCell id="VP1_t2__LC_QrhO8QvFU-40" value="Calico CNI" style="rounded=1;whiteSpace=wrap;html=1;glass=0;sketch=0;gradientColor=none;align=center;" vertex="1" parent="1">
          <mxGeometry x="490" y="370" width="120" height="50" as="geometry" />
        </mxCell>
      </root>
    </mxGraphModel>
  </diagram>
</mxfile>
